<svg id="svg" version="1.1" xmlns="http://www.w3.org/2000/svg" xmlns:xlink="http://www.w3.org/1999/xlink" width="400" height="108.58725761772853" viewBox="0, 0, 400,108.58725761772853"><g id="svgg"><path id="path0" d="M64.718 8.613 C 64.795 8.739,64.637 8.883,64.278 9.013 C 63.517 9.288,63.255 10.269,63.235 12.917 C 63.217 15.360,63.221 15.333,62.934 15.333 C 62.584 15.333,62.530 15.606,62.333 18.369 C 62.105 21.552,62.047 21.930,61.738 22.239 C 61.558 22.418,61.441 23.156,61.320 24.869 C 61.185 26.773,61.073 27.423,60.758 28.111 C 60.510 28.655,60.325 29.454,60.258 30.278 C 60.085 32.387,59.822 33.870,59.494 34.583 C 59.299 35.007,59.122 36.000,59.007 37.310 C 58.892 38.631,58.709 39.647,58.499 40.143 C 58.298 40.616,58.072 41.819,57.917 43.239 C 57.739 44.867,57.568 45.723,57.344 46.102 C 57.111 46.498,56.976 47.230,56.839 48.842 C 56.700 50.483,56.562 51.216,56.299 51.729 C 56.062 52.191,55.848 53.176,55.650 54.727 C 55.487 55.998,55.236 57.386,55.093 57.811 C 54.950 58.236,54.681 59.472,54.495 60.558 C 54.310 61.645,54.056 62.732,53.932 62.975 C 53.807 63.218,53.655 63.979,53.594 64.667 C 53.457 66.195,53.179 67.689,52.989 67.925 C 52.735 68.239,53.010 68.833,53.409 68.833 C 53.692 68.833,53.892 68.609,54.262 67.879 C 54.567 67.275,55.271 66.402,56.176 65.504 C 56.963 64.722,57.733 63.896,57.888 63.667 C 58.043 63.438,58.433 62.913,58.755 62.500 C 59.806 61.153,60.178 60.025,59.783 59.386 C 59.720 59.286,59.851 59.084,60.072 58.939 C 60.294 58.794,60.518 58.542,60.570 58.379 C 60.623 58.217,60.925 57.907,61.242 57.692 C 61.563 57.474,61.897 57.062,61.996 56.761 C 62.094 56.464,62.395 56.011,62.664 55.753 C 62.999 55.432,63.189 55.050,63.264 54.547 C 63.326 54.138,63.558 53.591,63.787 53.319 C 64.139 52.902,64.204 52.645,64.225 51.583 C 64.244 50.645,64.307 50.336,64.481 50.335 C 64.847 50.332,65.463 49.502,65.584 48.848 C 65.645 48.519,65.829 48.025,65.993 47.750 C 66.490 46.917,67.041 44.979,67.093 43.879 C 67.191 41.799,68.567 40.676,69.467 41.942 C 69.623 42.161,69.873 42.491,70.024 42.675 C 70.175 42.860,70.347 43.273,70.408 43.593 C 70.468 43.914,70.578 44.138,70.653 44.092 C 70.875 43.955,71.292 44.553,71.256 44.958 C 71.237 45.165,71.271 45.333,71.331 45.333 C 71.392 45.333,71.457 45.727,71.477 46.208 C 71.496 46.690,71.536 47.233,71.564 47.417 C 71.593 47.600,71.675 48.125,71.746 48.583 C 71.818 49.042,71.977 49.614,72.099 49.856 C 72.222 50.097,72.360 50.847,72.406 51.522 C 72.556 53.739,72.884 56.604,73.089 57.500 C 73.142 57.729,73.260 59.378,73.352 61.164 C 73.468 63.417,73.618 64.769,73.842 65.581 C 74.385 67.550,74.590 70.841,74.361 73.917 C 74.251 75.383,74.162 77.296,74.162 78.167 C 74.162 79.687,73.618 86.048,73.398 87.083 C 73.245 87.809,72.763 88.690,72.266 89.154 C 72.028 89.376,71.833 89.655,71.833 89.772 C 71.833 89.890,71.533 90.077,71.167 90.186 C 70.361 90.428,70.237 90.993,70.922 91.305 C 71.309 91.482,71.330 91.472,71.175 91.182 C 71.047 90.944,71.066 90.843,71.253 90.772 C 71.472 90.688,71.535 90.820,71.490 91.271 C 71.472 91.451,73.389 92.369,74.062 92.502 C 74.621 92.612,74.876 92.543,75.974 91.981 C 76.671 91.625,77.412 91.333,77.620 91.333 C 77.829 91.333,78.000 91.265,78.000 91.182 C 78.000 91.099,78.262 90.717,78.583 90.333 C 79.090 89.727,79.167 89.518,79.167 88.745 C 79.167 88.002,79.221 87.838,79.500 87.750 C 80.051 87.575,80.209 87.030,80.298 85.009 C 80.374 83.260,80.422 83.031,80.816 82.513 L 81.250 81.943 81.250 72.263 C 81.250 62.298,81.221 61.833,80.599 61.833 C 80.424 61.833,80.361 61.091,80.297 58.292 C 80.215 54.643,80.084 53.886,79.442 53.355 C 79.218 53.168,79.166 52.796,79.163 51.355 C 79.158 49.225,79.010 48.508,78.435 47.825 C 78.070 47.390,78.000 47.143,77.998 46.279 C 77.995 44.748,77.837 44.052,77.376 43.555 C 77.148 43.309,76.939 42.990,76.910 42.846 C 76.882 42.701,76.845 42.546,76.828 42.500 C 76.812 42.454,76.787 42.267,76.774 42.083 C 76.756 41.828,76.643 41.757,76.292 41.781 L 75.833 41.813 75.833 39.752 C 75.833 37.627,75.698 37.167,75.071 37.167 C 74.887 37.167,74.833 36.894,74.832 35.958 C 74.831 34.441,74.603 33.606,74.078 33.192 C 73.711 32.903,73.665 32.737,73.650 31.643 C 73.627 29.961,73.506 29.595,72.952 29.531 C 72.501 29.478,72.500 29.475,72.500 28.086 C 72.500 26.434,72.420 26.167,71.922 26.167 C 71.569 26.167,71.542 26.082,71.458 24.747 C 71.367 23.275,71.179 22.833,70.646 22.833 C 70.376 22.833,70.333 22.701,70.333 21.858 C 70.333 20.610,70.067 19.851,69.563 19.659 C 69.206 19.523,69.167 19.408,69.167 18.496 C 69.167 17.458,68.867 16.612,68.441 16.449 C 68.291 16.391,68.159 15.984,68.086 15.353 C 67.965 14.317,67.691 13.891,67.252 14.059 C 67.045 14.139,67.000 13.983,67.000 13.182 C 67.000 12.071,66.683 11.180,66.179 10.874 C 65.966 10.744,65.832 10.489,65.831 10.207 C 65.828 9.601,65.510 9.014,65.007 8.685 C 64.782 8.537,64.652 8.505,64.718 8.613 M65.259 9.181 C 65.321 9.281,65.288 9.431,65.187 9.516 C 65.086 9.600,65.039 9.619,65.083 9.558 C 65.128 9.497,65.080 9.347,64.978 9.224 C 64.851 9.071,64.849 9.000,64.970 9.000 C 65.067 9.000,65.197 9.082,65.259 9.181 M57.943 16.956 C 57.711 17.802,57.671 18.483,57.847 18.592 C 58.130 18.766,58.328 18.340,58.331 17.552 C 58.333 16.826,58.084 16.443,57.943 16.956 M56.873 19.036 C 56.776 19.154,56.643 19.534,56.579 19.881 C 56.514 20.227,56.293 20.758,56.088 21.060 C 55.515 21.905,55.682 22.667,56.440 22.667 C 57.172 22.667,57.341 22.253,57.385 20.356 C 57.416 18.961,57.263 18.564,56.873 19.036 M52.207 27.708 C 52.115 27.823,51.895 28.217,51.718 28.583 C 51.541 28.950,51.314 29.400,51.214 29.583 C 51.113 29.767,50.946 30.235,50.843 30.623 C 50.739 31.011,50.479 31.518,50.265 31.749 C 50.032 32.001,49.799 32.561,49.684 33.148 C 49.566 33.747,49.336 34.295,49.092 34.559 C 48.861 34.808,48.612 35.379,48.500 35.916 C 48.365 36.566,48.193 36.918,47.921 37.096 C 47.635 37.283,47.484 37.618,47.338 38.390 C 47.187 39.191,47.058 39.468,46.779 39.591 C 46.508 39.710,46.369 39.991,46.228 40.708 C 46.107 41.320,45.909 41.771,45.681 41.958 C 45.484 42.118,45.223 42.630,45.101 43.094 C 44.979 43.559,44.694 44.124,44.467 44.352 C 44.225 44.593,44.007 45.056,43.941 45.467 C 43.880 45.853,43.605 46.533,43.331 46.978 C 43.057 47.423,42.833 47.872,42.833 47.976 C 42.833 48.080,42.452 48.934,41.986 49.874 C 41.520 50.814,40.994 51.991,40.818 52.488 C 40.642 52.986,40.395 53.511,40.270 53.655 C 40.145 53.799,39.877 54.423,39.675 55.042 C 39.472 55.660,39.245 56.167,39.169 56.167 C 39.094 56.167,38.876 56.682,38.685 57.311 C 38.494 57.941,38.233 58.542,38.106 58.648 C 37.979 58.753,37.783 59.194,37.672 59.628 C 37.362 60.828,37.158 61.301,36.911 61.396 C 36.787 61.444,36.633 61.768,36.570 62.116 C 36.408 63.008,36.012 63.960,35.763 64.055 C 35.647 64.100,35.455 64.593,35.336 65.152 C 35.209 65.754,34.961 66.340,34.729 66.591 C 34.513 66.824,34.291 67.217,34.236 67.465 C 34.031 68.394,33.803 69.000,33.658 69.000 C 33.433 69.000,33.054 69.830,32.925 70.605 C 32.857 71.012,32.652 71.431,32.421 71.632 C 32.175 71.845,31.952 72.323,31.818 72.919 C 31.702 73.441,31.504 73.906,31.380 73.954 C 31.075 74.071,30.667 74.890,30.667 75.386 C 30.667 75.607,30.527 75.967,30.357 76.186 C 29.931 76.732,29.500 77.598,29.500 77.906 C 29.500 78.047,29.284 78.519,29.021 78.956 C 28.758 79.393,28.492 79.964,28.430 80.226 C 28.369 80.487,28.196 80.888,28.047 81.116 C 27.731 81.597,26.710 83.862,26.494 84.558 C 26.414 84.818,26.188 85.303,25.992 85.634 C 25.029 87.267,24.296 90.379,24.810 90.654 C 25.448 90.995,28.238 90.881,28.583 90.500 C 28.806 90.254,29.097 90.167,29.692 90.167 L 30.500 90.167 30.500 90.750 C 30.500 91.304,30.554 91.359,31.577 91.843 C 32.821 92.430,33.039 92.422,38.833 91.585 C 39.063 91.552,40.188 91.474,41.333 91.411 C 43.427 91.297,43.927 91.151,43.756 90.706 C 43.701 90.561,43.924 90.221,44.314 89.857 C 45.337 88.902,45.751 87.811,46.249 84.750 C 46.398 83.833,46.661 82.633,46.833 82.083 C 47.005 81.533,47.231 80.371,47.335 79.500 C 47.439 78.629,47.702 77.204,47.920 76.333 C 48.139 75.462,48.434 73.876,48.577 72.808 C 48.720 71.740,48.952 70.540,49.092 70.141 C 49.233 69.743,49.462 68.517,49.602 67.417 C 49.742 66.317,49.971 65.004,50.112 64.500 C 50.253 63.996,50.511 62.571,50.685 61.334 C 50.860 60.097,51.116 58.672,51.255 58.168 C 51.394 57.663,51.620 56.425,51.759 55.417 C 51.897 54.408,52.159 52.983,52.341 52.250 C 52.523 51.517,52.825 49.883,53.012 48.620 C 53.199 47.357,53.461 45.969,53.593 45.537 C 53.725 45.104,53.947 43.475,54.087 41.917 C 54.312 39.399,54.749 35.633,54.946 34.512 C 55.037 33.995,54.726 31.415,54.400 29.978 C 54.018 28.295,52.771 27.005,52.207 27.708 M58.083 90.333 C 57.634 90.414,58.106 90.460,59.532 90.476 C 60.789 90.490,61.689 90.432,61.750 90.333 C 61.868 90.142,59.151 90.142,58.083 90.333 M56.750 90.833 L 51.583 90.924 56.865 90.962 C 60.248 90.986,62.184 90.940,62.250 90.833 C 62.307 90.742,62.255 90.684,62.135 90.705 C 62.015 90.726,59.592 90.784,56.750 90.833 M19.184 92.089 C 18.899 92.413,18.671 92.844,18.677 93.047 C 18.687 93.403,18.694 93.401,18.852 93.005 C 18.942 92.779,19.204 92.347,19.433 92.047 C 19.986 91.323,19.834 91.348,19.184 92.089 M83.657 92.021 C 83.453 93.307,83.576 94.116,83.931 93.822 C 84.244 93.562,84.234 92.430,83.917 92.167 C 83.779 92.053,83.662 91.987,83.657 92.021 M18.678 93.886 C 18.664 94.260,18.934 94.798,19.383 95.292 C 19.741 95.684,20.167 95.792,20.167 95.490 C 20.167 95.393,20.097 95.357,20.012 95.410 C 19.863 95.501,19.591 95.216,19.586 94.964 C 19.584 94.898,19.433 94.673,19.250 94.464 C 19.067 94.255,18.866 93.971,18.803 93.834 C 18.712 93.632,18.688 93.643,18.678 93.886 M28.059 94.507 C 26.933 94.663,26.867 94.718,26.945 95.426 C 27.058 96.455,28.163 97.248,29.696 97.398 C 30.757 97.502,31.361 97.818,31.238 98.203 C 31.148 98.490,31.211 98.480,31.944 98.102 C 33.039 97.537,36.823 96.722,40.417 96.278 C 40.692 96.244,40.421 96.205,39.814 96.192 C 37.530 96.140,36.818 95.905,36.798 95.197 C 36.785 94.750,36.706 94.674,36.093 94.520 C 35.331 94.328,29.419 94.319,28.059 94.507 M82.257 95.822 C 82.204 95.907,82.239 96.025,82.334 96.084 C 82.438 96.148,82.355 96.317,82.129 96.507 C 81.920 96.680,81.844 96.825,81.958 96.828 C 82.073 96.831,82.167 96.754,82.167 96.657 C 82.167 96.560,82.223 96.513,82.292 96.552 C 82.360 96.591,82.591 96.408,82.804 96.145 L 83.192 95.667 82.773 95.667 C 82.542 95.667,82.310 95.736,82.257 95.822 M21.667 96.300 C 21.667 96.518,22.048 96.833,22.311 96.833 C 22.594 96.833,22.403 96.587,22.111 96.576 C 22.004 96.572,21.935 96.478,21.958 96.367 C 21.981 96.257,21.925 96.167,21.833 96.167 C 21.742 96.167,21.667 96.227,21.667 96.300 M80.833 97.167 C 81.056 97.311,80.957 97.404,80.631 97.355 C 80.566 97.345,80.555 97.449,80.607 97.585 C 80.735 97.918,81.105 97.900,81.238 97.555 C 81.341 97.286,81.092 97.005,80.750 97.005 C 80.658 97.005,80.696 97.078,80.833 97.167 M78.975 98.016 C 78.856 98.089,78.872 98.157,79.023 98.219 C 79.193 98.289,79.151 98.398,78.857 98.656 C 78.492 98.975,78.541 99.150,78.917 98.871 C 79.765 98.240,79.816 97.496,78.975 98.016 M26.266 98.641 C 26.208 98.734,26.242 98.860,26.342 98.922 C 26.598 99.080,26.763 98.863,26.549 98.649 C 26.430 98.530,26.336 98.527,26.266 98.641 M76.074 99.236 C 75.896 99.366,75.788 99.510,75.834 99.555 C 75.879 99.601,76.094 99.494,76.310 99.319 C 76.763 98.952,76.560 98.881,76.074 99.236 " stroke="none" fill="#a5a4a1" fill-rule="evenodd"></path><path id="path1" d="M64.125 8.786 C 63.873 8.824,63.667 8.915,63.667 8.988 C 63.667 9.061,63.445 9.400,63.174 9.740 C 62.685 10.356,62.683 10.370,62.781 11.989 C 62.875 13.517,62.853 13.676,62.434 14.562 C 61.981 15.520,61.259 18.444,61.081 20.040 C 60.923 21.465,60.653 23.000,60.327 24.333 C 60.159 25.021,59.938 26.221,59.836 27.000 C 59.734 27.779,59.466 29.183,59.239 30.120 C 59.012 31.057,58.717 32.653,58.583 33.666 C 58.450 34.680,58.272 35.638,58.189 35.796 C 57.974 36.204,57.545 38.331,57.335 40.034 C 57.237 40.831,57.054 41.731,56.928 42.034 C 56.803 42.336,56.538 43.596,56.339 44.833 C 56.140 46.071,55.877 47.421,55.754 47.833 C 55.631 48.246,55.336 49.596,55.099 50.833 C 54.861 52.071,54.556 53.608,54.420 54.250 C 54.284 54.892,54.022 56.167,53.837 57.083 C 53.652 58.000,53.272 59.837,52.991 61.167 C 52.711 62.496,52.371 64.296,52.237 65.167 C 52.102 66.037,51.837 67.313,51.647 68.000 C 51.457 68.688,51.263 69.887,51.217 70.667 C 51.170 71.462,50.956 72.660,50.729 73.398 C 50.507 74.120,50.176 75.742,49.994 77.001 C 49.812 78.260,49.519 79.712,49.341 80.227 C 49.164 80.743,48.938 81.884,48.840 82.762 C 48.640 84.558,48.467 85.418,48.091 86.479 C 47.611 87.836,47.821 90.167,48.422 90.167 C 48.568 90.167,48.645 90.233,48.595 90.314 C 48.545 90.396,48.615 90.554,48.750 90.667 C 48.885 90.779,48.955 90.938,48.905 91.019 C 48.853 91.104,50.751 91.151,53.365 91.131 L 57.917 91.094 54.750 91.004 L 51.583 90.914 56.917 90.792 C 59.850 90.724,63.298 90.626,64.579 90.575 C 65.860 90.523,66.851 90.538,66.781 90.607 C 66.712 90.677,65.626 90.781,64.369 90.839 C 62.351 90.933,62.577 90.948,66.292 90.973 C 70.278 90.999,70.500 90.984,70.500 90.693 C 70.500 90.479,70.703 90.325,71.167 90.186 C 71.533 90.077,71.833 89.890,71.833 89.772 C 71.833 89.655,72.028 89.376,72.266 89.154 C 73.077 88.397,73.667 86.914,72.960 87.409 C 72.642 87.632,72.184 87.655,69.835 87.563 C 66.293 87.425,66.193 87.362,67.298 85.965 C 69.015 83.794,69.809 82.151,70.672 78.987 C 71.545 75.786,72.126 73.469,72.342 72.333 C 72.456 71.737,72.655 71.037,72.786 70.778 C 72.916 70.518,73.093 69.843,73.178 69.278 C 73.263 68.712,73.422 67.762,73.531 67.167 L 73.730 66.083 73.935 66.750 C 74.269 67.830,74.196 66.935,73.843 65.619 C 73.621 64.789,73.467 63.392,73.352 61.164 C 73.260 59.378,73.142 57.729,73.089 57.500 C 72.884 56.604,72.556 53.739,72.406 51.522 C 72.360 50.847,72.222 50.097,72.099 49.856 C 71.977 49.614,71.818 49.042,71.746 48.583 C 71.675 48.125,71.593 47.600,71.564 47.417 C 71.536 47.233,71.496 46.690,71.477 46.208 C 71.457 45.727,71.392 45.333,71.331 45.333 C 71.271 45.333,71.237 45.165,71.256 44.958 C 71.292 44.553,70.875 43.955,70.653 44.092 C 70.578 44.138,70.468 43.914,70.408 43.593 C 70.347 43.273,70.175 42.860,70.024 42.675 C 69.873 42.491,69.623 42.161,69.467 41.942 C 68.567 40.676,67.191 41.799,67.093 43.879 C 67.041 44.979,66.490 46.917,65.993 47.750 C 65.829 48.025,65.645 48.519,65.584 48.848 C 65.463 49.502,64.847 50.332,64.481 50.335 C 64.307 50.336,64.244 50.645,64.225 51.583 C 64.204 52.645,64.139 52.902,63.787 53.319 C 63.558 53.591,63.326 54.138,63.264 54.547 C 63.189 55.050,62.999 55.432,62.664 55.753 C 62.395 56.011,62.094 56.464,61.996 56.761 C 61.897 57.062,61.563 57.474,61.242 57.692 C 60.925 57.907,60.623 58.217,60.570 58.379 C 60.518 58.542,60.294 58.794,60.072 58.939 C 59.851 59.084,59.720 59.286,59.783 59.386 C 60.178 60.025,59.806 61.153,58.755 62.500 C 58.433 62.913,58.043 63.438,57.888 63.667 C 57.733 63.896,56.963 64.722,56.176 65.504 C 55.271 66.402,54.567 67.275,54.262 67.879 C 53.892 68.609,53.692 68.833,53.409 68.833 C 53.010 68.833,52.735 68.239,52.989 67.925 C 53.179 67.689,53.457 66.195,53.594 64.667 C 53.655 63.979,53.807 63.218,53.932 62.975 C 54.056 62.732,54.310 61.645,54.495 60.558 C 54.681 59.472,54.950 58.236,55.093 57.811 C 55.236 57.386,55.487 55.998,55.650 54.727 C 55.848 53.176,56.062 52.191,56.299 51.729 C 56.562 51.216,56.700 50.483,56.839 48.842 C 56.976 47.230,57.111 46.498,57.344 46.102 C 57.568 45.723,57.739 44.867,57.917 43.239 C 58.072 41.819,58.298 40.616,58.499 40.143 C 58.709 39.647,58.892 38.631,59.007 37.310 C 59.122 36.000,59.299 35.007,59.494 34.583 C 59.822 33.870,60.085 32.387,60.258 30.278 C 60.325 29.454,60.510 28.655,60.758 28.111 C 61.073 27.423,61.185 26.773,61.320 24.869 C 61.441 23.156,61.558 22.418,61.738 22.239 C 62.047 21.930,62.105 21.552,62.333 18.369 C 62.530 15.606,62.584 15.333,62.934 15.333 C 63.221 15.333,63.217 15.360,63.235 12.917 C 63.250 10.885,63.562 9.167,63.916 9.167 C 64.019 9.167,64.249 9.057,64.426 8.922 C 64.604 8.787,64.712 8.686,64.667 8.697 C 64.621 8.708,64.377 8.748,64.125 8.786 M58.969 13.500 C 58.823 13.729,58.658 14.179,58.602 14.500 C 58.546 14.821,58.294 15.279,58.041 15.517 C 57.788 15.756,57.489 16.299,57.374 16.729 C 57.260 17.158,56.990 17.787,56.776 18.129 C 56.561 18.471,56.218 19.200,56.014 19.750 C 55.613 20.830,55.178 21.396,54.461 21.769 C 54.210 21.899,53.959 22.188,53.903 22.410 C 53.833 22.691,53.667 22.830,53.359 22.865 C 52.932 22.915,52.915 22.958,52.872 24.083 C 52.812 25.676,52.740 25.913,52.254 26.135 C 52.022 26.240,51.833 26.466,51.833 26.638 C 51.833 27.266,51.471 28.000,51.162 28.000 C 50.799 28.000,50.724 28.220,50.574 29.708 C 50.471 30.735,50.428 30.833,50.082 30.833 C 49.634 30.833,49.501 31.112,49.498 32.055 C 49.494 33.104,49.359 33.417,48.822 33.620 C 48.357 33.796,48.333 33.852,48.333 34.798 C 48.333 35.822,48.194 36.080,47.583 36.192 C 47.306 36.243,47.236 36.420,47.167 37.250 C 47.097 38.081,47.028 38.257,46.750 38.306 C 46.309 38.385,46.174 38.527,46.081 39.012 C 46.038 39.234,45.928 39.441,45.835 39.472 C 45.742 39.503,45.667 39.616,45.667 39.725 C 45.667 39.833,45.517 40.201,45.333 40.544 C 45.150 40.886,45.000 41.275,45.000 41.408 C 45.000 41.541,44.894 41.710,44.765 41.783 C 44.636 41.857,44.366 42.404,44.166 43.000 C 43.780 44.151,43.545 44.548,43.329 44.414 C 43.256 44.369,43.149 44.651,43.092 45.041 C 42.881 46.477,42.635 47.167,42.335 47.167 C 42.104 47.167,42.005 47.420,41.844 48.417 C 41.666 49.518,41.595 49.678,41.242 49.767 C 40.952 49.840,40.820 50.011,40.762 50.392 C 40.718 50.681,40.640 51.186,40.588 51.516 C 40.524 51.928,40.373 52.171,40.106 52.293 C 39.783 52.440,39.700 52.638,39.614 53.457 C 39.482 54.717,39.369 55.000,38.995 55.000 C 38.682 55.000,38.617 55.192,38.418 56.700 C 38.342 57.284,38.230 57.510,37.981 57.589 C 37.594 57.712,37.334 58.296,37.331 59.053 C 37.327 59.891,37.168 60.279,36.750 60.470 C 36.422 60.619,36.344 60.816,36.245 61.740 C 36.142 62.702,36.075 62.859,35.689 63.043 C 35.416 63.174,35.233 63.410,35.206 63.668 C 35.050 65.145,34.962 65.500,34.752 65.500 C 34.324 65.500,34.041 65.983,33.925 66.908 C 33.834 67.636,33.747 67.833,33.516 67.833 C 33.177 67.833,32.899 68.329,32.760 69.179 C 32.702 69.532,32.460 69.969,32.165 70.252 C 31.848 70.555,31.667 70.896,31.667 71.188 C 31.667 71.440,31.599 71.689,31.517 71.739 C 31.287 71.882,30.722 73.035,30.591 73.632 C 30.526 73.926,30.405 74.167,30.322 74.167 C 30.134 74.167,29.755 75.056,29.607 75.847 C 29.546 76.175,29.309 76.606,29.081 76.804 C 28.853 77.002,28.667 77.325,28.667 77.521 C 28.667 78.158,28.282 79.182,27.983 79.343 C 27.804 79.438,27.611 79.872,27.486 80.458 C 27.366 81.024,27.128 81.567,26.906 81.785 C 26.699 81.987,26.485 82.381,26.431 82.660 C 26.377 82.939,26.289 83.395,26.235 83.674 C 26.181 83.952,25.965 84.346,25.755 84.549 C 25.495 84.799,25.307 85.275,25.167 86.042 C 25.034 86.774,24.884 87.167,24.737 87.167 C 24.353 87.167,24.167 87.763,24.167 88.989 C 24.167 90.167,24.409 90.582,24.587 89.708 C 24.802 88.655,25.586 86.368,25.953 85.722 C 26.171 85.341,26.414 84.816,26.495 84.556 C 26.710 83.862,27.732 81.596,28.047 81.116 C 28.196 80.888,28.369 80.487,28.430 80.226 C 28.492 79.964,28.758 79.393,29.021 78.956 C 29.284 78.519,29.500 78.047,29.500 77.906 C 29.500 77.598,29.931 76.732,30.357 76.186 C 30.527 75.967,30.667 75.607,30.667 75.386 C 30.667 74.890,31.075 74.071,31.380 73.954 C 31.504 73.906,31.702 73.441,31.818 72.919 C 31.952 72.323,32.175 71.845,32.421 71.632 C 32.652 71.431,32.857 71.012,32.925 70.605 C 33.054 69.830,33.433 69.000,33.658 69.000 C 33.803 69.000,34.031 68.394,34.236 67.465 C 34.291 67.217,34.513 66.824,34.729 66.591 C 34.961 66.340,35.209 65.754,35.336 65.152 C 35.455 64.593,35.647 64.100,35.763 64.055 C 36.012 63.960,36.408 63.008,36.570 62.116 C 36.633 61.768,36.787 61.444,36.911 61.396 C 37.158 61.301,37.362 60.828,37.672 59.628 C 37.783 59.194,37.979 58.753,38.106 58.648 C 38.233 58.542,38.494 57.941,38.685 57.311 C 38.876 56.682,39.094 56.167,39.169 56.167 C 39.245 56.167,39.472 55.660,39.675 55.042 C 39.877 54.423,40.145 53.799,40.270 53.655 C 40.395 53.511,40.642 52.986,40.818 52.488 C 40.994 51.991,41.520 50.814,41.986 49.874 C 42.452 48.934,42.833 48.080,42.833 47.976 C 42.833 47.872,43.057 47.423,43.331 46.978 C 43.605 46.533,43.880 45.853,43.941 45.467 C 44.007 45.056,44.225 44.593,44.467 44.352 C 44.694 44.124,44.979 43.559,45.101 43.094 C 45.223 42.630,45.484 42.118,45.681 41.958 C 45.909 41.771,46.107 41.320,46.228 40.708 C 46.369 39.991,46.508 39.710,46.779 39.591 C 47.058 39.468,47.187 39.191,47.338 38.390 C 47.484 37.618,47.635 37.283,47.921 37.096 C 48.193 36.918,48.365 36.566,48.500 35.916 C 48.612 35.379,48.861 34.808,49.092 34.559 C 49.336 34.295,49.566 33.747,49.684 33.148 C 49.799 32.561,50.032 32.001,50.265 31.749 C 50.479 31.518,50.741 31.011,50.846 30.623 C 51.237 29.185,52.139 27.599,52.604 27.533 C 53.203 27.447,54.104 28.674,54.400 29.978 C 54.726 31.415,55.037 33.995,54.946 34.512 C 54.749 35.633,54.312 39.399,54.087 41.917 C 53.947 43.475,53.725 45.104,53.593 45.537 C 53.461 45.969,53.199 47.357,53.012 48.620 C 52.825 49.883,52.523 51.517,52.341 52.250 C 52.159 52.983,51.897 54.408,51.759 55.417 C 51.620 56.425,51.394 57.663,51.255 58.168 C 51.116 58.672,50.860 60.097,50.685 61.334 C 50.511 62.571,50.253 63.996,50.112 64.500 C 49.971 65.004,49.742 66.317,49.602 67.417 C 49.462 68.517,49.233 69.743,49.092 70.141 C 48.952 70.540,48.720 71.740,48.577 72.808 C 48.434 73.876,48.139 75.462,47.920 76.333 C 47.702 77.204,47.439 78.629,47.335 79.500 C 47.231 80.371,47.005 81.533,46.833 82.083 C 46.661 82.633,46.398 83.833,46.249 84.750 C 45.753 87.793,45.324 88.940,44.362 89.793 L 43.750 90.335 44.293 90.151 C 45.150 89.860,46.128 88.589,46.332 87.500 C 46.427 86.996,46.692 85.758,46.922 84.750 C 47.152 83.742,47.452 82.096,47.588 81.092 C 47.723 80.088,47.981 78.738,48.159 78.092 C 48.338 77.446,48.566 76.151,48.666 75.215 C 48.766 74.280,48.958 73.117,49.093 72.632 C 49.387 71.569,49.731 69.750,49.998 67.839 C 50.106 67.064,50.302 66.112,50.434 65.726 C 50.565 65.339,50.820 63.986,50.999 62.719 C 51.179 61.453,51.442 60.044,51.583 59.588 C 51.724 59.133,51.955 57.858,52.097 56.755 C 52.238 55.652,52.497 54.279,52.673 53.704 C 52.848 53.129,53.073 52.004,53.173 51.204 C 53.273 50.404,53.546 48.937,53.779 47.942 C 54.013 46.948,54.345 45.261,54.517 44.192 C 54.689 43.124,54.942 41.762,55.079 41.167 C 55.216 40.571,55.435 39.033,55.567 37.750 C 55.699 36.467,55.887 35.206,55.986 34.948 C 56.431 33.790,56.850 30.155,56.932 26.750 C 56.998 24.007,57.084 23.016,57.330 22.167 C 57.502 21.571,57.718 20.783,57.810 20.417 C 57.902 20.050,58.125 19.337,58.305 18.833 C 58.486 18.329,58.670 17.617,58.714 17.250 C 58.809 16.469,58.981 16.000,59.173 16.000 C 59.393 16.000,59.556 14.192,59.388 13.613 L 59.234 13.083 58.969 13.500 M58.331 17.552 C 58.328 18.340,58.130 18.766,57.847 18.592 C 57.671 18.483,57.711 17.802,57.943 16.956 C 58.084 16.443,58.333 16.826,58.331 17.552 M57.385 20.356 C 57.341 22.253,57.172 22.667,56.440 22.667 C 55.682 22.667,55.515 21.905,56.088 21.060 C 56.293 20.758,56.514 20.227,56.579 19.881 C 56.886 18.238,57.426 18.557,57.385 20.356 M74.105 74.848 C 74.047 75.138,74.010 75.872,74.023 76.479 C 74.045 77.544,74.051 77.527,74.186 76.010 C 74.328 74.403,74.294 73.906,74.105 74.848 M73.805 81.500 C 73.770 81.867,73.799 82.167,73.871 82.167 C 73.942 82.167,74.000 81.867,74.000 81.500 C 74.000 81.133,73.970 80.833,73.934 80.833 C 73.898 80.833,73.840 81.133,73.805 81.500 M61.750 90.333 C 61.689 90.432,60.789 90.490,59.532 90.476 C 58.106 90.460,57.634 90.414,58.083 90.333 C 59.151 90.142,61.868 90.142,61.750 90.333 M65.465 90.290 C 64.941 90.323,64.041 90.323,63.465 90.290 C 62.888 90.258,63.317 90.231,64.417 90.230 C 65.517 90.230,65.988 90.257,65.465 90.290 M19.902 91.524 C 19.851 91.605,19.722 91.621,19.613 91.559 C 19.505 91.497,19.469 91.505,19.534 91.577 C 19.599 91.648,19.467 91.978,19.242 92.309 C 19.017 92.640,18.828 93.025,18.822 93.164 C 18.814 93.336,18.764 93.311,18.667 93.083 C 18.559 92.832,18.523 92.934,18.523 93.500 C 18.523 94.066,18.559 94.168,18.667 93.917 C 18.777 93.660,18.813 93.646,18.822 93.855 C 18.828 94.004,18.987 94.229,19.176 94.355 C 19.364 94.480,19.535 94.696,19.556 94.833 C 19.614 95.227,19.842 95.515,20.012 95.410 C 20.097 95.357,20.167 95.383,20.167 95.468 C 20.167 95.553,20.465 95.663,20.829 95.712 C 21.593 95.814,22.077 96.190,21.801 96.466 C 21.675 96.592,21.715 96.629,21.937 96.593 C 22.109 96.566,22.325 96.590,22.417 96.647 C 22.508 96.703,22.771 96.760,23.000 96.773 C 23.229 96.786,23.553 96.805,23.720 96.815 C 23.944 96.829,23.995 96.920,23.917 97.167 C 23.854 97.365,23.887 97.500,23.999 97.500 C 24.102 97.500,24.133 97.587,24.067 97.692 C 23.996 97.807,24.021 97.840,24.129 97.773 C 24.229 97.712,24.353 97.730,24.405 97.814 C 24.457 97.898,24.754 97.967,25.066 97.967 C 25.867 97.967,26.332 98.143,26.230 98.408 C 26.183 98.532,26.236 98.690,26.348 98.759 C 26.486 98.845,26.513 98.810,26.430 98.651 C 26.363 98.522,26.416 98.548,26.548 98.708 C 26.821 99.042,27.083 99.105,26.895 98.792 C 26.801 98.637,26.831 98.627,27.010 98.756 C 27.142 98.851,27.475 98.952,27.750 98.981 C 28.346 99.042,28.345 99.042,28.376 99.452 C 28.441 100.314,29.774 100.404,29.933 99.557 C 30.000 99.198,30.134 98.998,30.310 98.995 C 31.906 98.964,31.367 97.562,29.696 97.398 C 28.158 97.247,27.058 96.456,26.944 95.417 C 26.847 94.539,27.158 94.468,31.484 94.384 C 35.975 94.298,36.776 94.420,36.798 95.194 C 36.821 96.007,37.910 96.251,40.833 96.101 C 48.786 95.690,56.957 95.846,65.167 96.565 C 67.712 96.788,68.719 96.628,69.264 95.915 C 69.366 95.782,70.386 95.492,71.597 95.252 C 72.781 95.018,74.510 94.637,75.439 94.405 C 77.008 94.014,77.351 93.999,78.375 94.277 C 79.348 94.540,77.738 96.047,76.083 96.421 C 75.018 96.662,73.667 97.362,73.667 97.672 C 73.667 97.934,74.828 98.806,75.321 98.914 C 75.603 98.976,75.833 99.098,75.833 99.186 C 75.833 99.284,75.956 99.280,76.150 99.176 C 76.324 99.083,77.031 98.987,77.720 98.963 C 78.410 98.938,78.943 98.888,78.905 98.850 C 78.867 98.812,78.925 98.674,79.032 98.544 C 79.185 98.360,79.176 98.274,78.989 98.157 C 78.728 97.991,78.820 97.963,79.625 97.957 C 79.831 97.956,80.000 97.880,80.000 97.790 C 80.000 97.697,80.102 97.710,80.235 97.821 C 80.508 98.048,80.760 97.786,80.567 97.474 C 80.486 97.342,80.522 97.328,80.683 97.428 C 81.171 97.733,81.408 97.637,81.000 97.300 C 80.599 96.969,80.598 96.960,80.958 97.072 C 81.241 97.160,81.333 97.123,81.333 96.918 C 81.333 96.769,81.409 96.694,81.502 96.751 C 81.594 96.808,81.859 96.706,82.091 96.524 C 82.342 96.326,82.441 96.150,82.336 96.085 C 82.045 95.905,82.323 95.667,82.823 95.667 C 83.521 95.667,83.598 95.431,83.591 93.333 L 83.583 91.417 80.417 91.370 L 77.250 91.323 75.978 91.976 C 74.499 92.736,74.091 92.722,72.417 91.858 L 71.417 91.342 59.833 91.337 L 48.250 91.332 47.962 91.840 C 47.219 93.150,44.467 92.958,43.930 91.557 C 43.835 91.311,40.324 91.333,38.763 91.589 C 37.899 91.731,34.649 92.154,33.702 92.248 C 32.759 92.341,32.544 92.300,31.560 91.835 L 30.466 91.318 25.230 91.347 C 22.350 91.363,19.952 91.443,19.902 91.524 M62.917 94.333 C 63.593 95.081,62.377 95.607,61.231 95.063 C 60.458 94.697,60.411 94.559,60.953 94.265 C 61.628 93.899,62.553 93.931,62.917 94.333 " stroke="none" fill="#6b9ab7" fill-rule="evenodd"></path><path id="path2" d="M60.316 5.249 C 59.746 5.559,59.333 6.206,59.333 6.791 C 59.333 7.154,59.226 7.301,58.858 7.439 C 58.407 7.610,57.958 8.847,58.244 9.133 C 58.293 9.182,58.335 9.078,58.338 8.903 C 58.341 8.727,58.566 8.365,58.838 8.097 C 59.110 7.830,59.333 7.689,59.333 7.785 C 59.333 7.881,59.225 8.049,59.093 8.158 C 58.961 8.268,58.894 8.465,58.944 8.596 C 58.995 8.726,58.948 8.833,58.841 8.833 C 58.733 8.833,58.700 8.741,58.767 8.625 C 58.833 8.510,58.823 8.475,58.744 8.546 C 58.425 8.836,58.525 9.147,58.891 9.007 C 59.089 8.932,59.243 8.768,59.234 8.644 C 59.224 8.507,59.415 8.402,59.715 8.380 C 59.989 8.360,60.340 8.228,60.495 8.088 C 60.846 7.770,61.446 7.764,62.036 8.071 C 62.285 8.201,62.847 8.326,63.286 8.348 C 63.724 8.370,64.213 8.453,64.371 8.531 C 64.745 8.717,64.918 8.096,64.762 7.123 C 64.490 5.419,61.962 4.354,60.316 5.249 M57.409 9.782 C 57.152 10.039,57.140 10.400,57.359 11.325 C 57.395 11.477,57.202 11.639,56.839 11.762 C 56.176 11.985,55.910 12.645,56.052 13.708 C 56.097 14.052,56.068 14.375,55.986 14.425 C 55.904 14.476,55.882 14.401,55.936 14.259 C 55.991 14.116,55.967 14.000,55.883 14.000 C 55.370 14.000,54.833 15.064,54.833 16.081 C 54.833 16.460,54.691 16.738,54.333 17.057 C 53.883 17.458,53.833 17.602,53.833 18.498 C 53.833 19.414,53.801 19.502,53.428 19.595 C 53.172 19.660,52.956 19.886,52.844 20.207 C 52.585 20.949,52.607 20.955,53.275 20.324 C 53.831 19.800,53.873 19.829,53.582 20.542 C 53.478 20.794,54.601 20.821,55.028 20.576 C 55.301 20.420,56.435 18.204,56.368 17.958 C 56.349 17.890,56.413 17.833,56.510 17.833 C 56.607 17.833,56.640 17.758,56.583 17.667 C 56.527 17.575,56.560 17.500,56.657 17.500 C 56.754 17.500,56.817 17.444,56.798 17.375 C 56.778 17.306,56.868 17.063,56.996 16.833 C 57.125 16.604,57.250 16.048,57.274 15.598 C 57.298 15.148,57.406 14.725,57.514 14.658 C 57.621 14.592,57.658 14.454,57.595 14.352 C 57.532 14.250,57.569 14.167,57.677 14.167 C 57.816 14.167,57.807 14.084,57.645 13.885 C 57.446 13.640,57.453 13.618,57.696 13.709 C 58.079 13.852,58.292 13.541,58.355 12.750 C 58.384 12.383,58.509 11.979,58.633 11.851 C 58.802 11.676,58.809 11.588,58.661 11.497 C 58.520 11.410,58.517 11.343,58.648 11.262 C 58.939 11.081,59.257 10.428,58.975 10.588 C 58.800 10.687,58.794 10.668,58.945 10.504 C 59.186 10.243,59.050 9.833,58.722 9.833 C 58.582 9.833,58.530 9.914,58.599 10.026 C 58.671 10.142,58.645 10.173,58.533 10.104 C 58.431 10.041,58.384 9.896,58.428 9.781 C 58.550 9.462,57.728 9.462,57.409 9.782 M58.267 10.208 C 58.333 10.323,58.324 10.360,58.247 10.290 C 58.171 10.221,57.915 10.333,57.679 10.540 L 57.250 10.917 57.654 10.458 C 58.120 9.930,58.109 9.934,58.267 10.208 M52.109 23.305 C 51.732 23.721,51.762 23.833,52.250 23.833 C 52.583 23.833,52.667 23.750,52.667 23.417 C 52.667 22.923,52.487 22.887,52.109 23.305 M51.250 24.954 C 50.733 25.081,50.500 25.337,50.500 25.780 C 50.500 26.057,50.566 26.149,50.708 26.069 C 50.875 25.975,50.875 25.996,50.708 26.176 C 50.594 26.299,50.500 26.610,50.500 26.867 C 50.500 27.146,50.410 27.333,50.276 27.333 C 49.788 27.333,49.465 27.972,49.400 29.064 L 49.337 30.146 49.793 30.092 C 50.044 30.062,50.306 30.029,50.375 30.019 C 50.444 30.009,50.501 29.756,50.502 29.458 C 50.506 28.257,50.694 27.666,51.107 27.563 C 51.574 27.445,51.677 27.091,51.623 25.792 C 51.601 25.265,51.583 24.842,51.583 24.853 C 51.583 24.863,51.433 24.909,51.250 24.954 M47.980 31.187 C 47.382 31.917,47.204 32.328,47.194 33.000 C 47.188 33.375,47.201 33.383,47.324 33.083 C 47.536 32.567,48.167 32.041,48.167 32.381 C 48.167 32.527,48.090 32.694,47.997 32.752 C 47.904 32.809,47.868 32.921,47.917 33.000 C 47.965 33.079,47.918 33.198,47.810 33.264 C 47.678 33.346,47.658 33.309,47.749 33.151 C 47.859 32.958,47.841 32.955,47.651 33.132 C 47.454 33.315,47.456 33.371,47.668 33.504 C 48.044 33.742,48.164 33.702,48.316 33.292 C 48.392 33.085,48.503 32.935,48.561 32.958 C 49.166 33.196,49.306 32.993,49.365 31.792 C 49.427 30.538,49.396 30.314,49.199 30.588 C 49.136 30.677,48.933 30.861,48.750 30.997 C 48.420 31.242,48.420 31.241,48.734 30.872 C 48.995 30.566,49.006 30.500,48.798 30.500 C 48.658 30.500,48.290 30.809,47.980 31.187 M47.398 33.918 C 47.225 34.049,47.008 34.157,46.917 34.159 C 46.825 34.160,46.862 34.083,47.000 33.987 C 47.190 33.853,47.151 33.839,46.833 33.928 C 46.208 34.104,45.940 34.674,46.362 34.934 C 46.492 35.014,46.522 34.965,46.453 34.786 C 46.381 34.597,46.422 34.545,46.592 34.610 C 46.725 34.661,46.833 34.619,46.833 34.518 C 46.833 34.416,46.746 34.333,46.639 34.333 C 46.532 34.333,46.489 34.289,46.543 34.235 C 46.679 34.099,47.206 34.411,47.156 34.598 C 47.134 34.682,46.996 34.844,46.850 34.959 C 46.610 35.146,46.613 35.157,46.875 35.066 C 47.035 35.010,47.167 35.042,47.167 35.138 C 47.167 35.233,46.979 35.277,46.750 35.236 C 46.269 35.149,46.207 35.357,46.615 35.688 C 46.856 35.883,46.876 35.882,46.755 35.680 C 46.648 35.503,46.681 35.470,46.884 35.548 C 47.034 35.605,47.203 35.575,47.262 35.481 C 47.320 35.387,47.470 35.350,47.595 35.398 C 47.936 35.529,48.333 35.042,48.333 34.494 C 48.333 33.875,47.849 33.576,47.398 33.918 M46.584 36.138 C 46.539 36.184,46.240 36.211,45.920 36.199 C 45.505 36.183,45.291 36.267,45.170 36.494 C 44.959 36.887,44.946 37.553,45.151 37.426 C 45.234 37.375,45.261 37.489,45.211 37.681 C 45.142 37.945,45.087 37.975,44.979 37.806 C 44.883 37.653,44.838 37.727,44.836 38.042 C 44.834 38.319,44.742 38.500,44.604 38.500 C 44.272 38.500,44.017 38.866,43.897 39.516 C 43.796 40.064,43.802 40.072,44.072 39.750 L 44.352 39.417 44.199 39.750 C 43.896 40.411,43.818 40.994,44.040 40.940 C 44.155 40.911,44.193 40.920,44.124 40.958 C 44.055 40.997,44.050 41.116,44.114 41.223 C 44.196 41.358,44.155 41.356,43.980 41.214 C 43.645 40.943,42.665 41.804,42.669 42.366 C 42.671 42.671,42.704 42.699,42.829 42.501 C 42.952 42.307,43.030 42.297,43.188 42.454 C 43.345 42.612,43.328 42.679,43.111 42.762 C 42.809 42.879,42.723 43.500,43.010 43.500 C 43.107 43.500,43.139 43.406,43.081 43.292 C 43.023 43.177,43.079 43.209,43.205 43.363 C 43.488 43.706,43.764 43.364,43.920 42.480 C 44.040 41.798,44.507 41.000,44.786 41.000 C 44.904 41.000,45.000 40.855,45.000 40.678 C 45.000 40.500,45.087 40.144,45.194 39.886 C 45.300 39.628,45.377 39.365,45.364 39.302 C 45.351 39.239,45.495 39.138,45.684 39.078 C 45.950 38.994,46.005 38.877,45.928 38.568 C 45.871 38.341,45.901 38.167,45.997 38.167 C 46.090 38.167,46.148 38.074,46.125 37.960 C 46.102 37.846,46.325 37.640,46.621 37.502 C 47.079 37.287,47.160 37.161,47.163 36.653 C 47.166 36.105,46.875 35.847,46.584 36.138 M45.762 38.324 C 45.762 38.563,45.708 38.603,45.555 38.476 C 45.441 38.382,45.251 38.363,45.132 38.434 C 44.972 38.531,44.975 38.492,45.145 38.282 C 45.452 37.904,45.762 37.925,45.762 38.324 M76.899 42.250 C 76.965 42.525,77.145 42.846,77.299 42.964 C 77.774 43.327,77.733 42.877,77.237 42.291 L 76.780 41.750 76.899 42.250 M42.740 43.818 C 42.792 43.901,42.683 43.930,42.499 43.881 C 42.057 43.766,41.667 44.109,41.667 44.614 C 41.667 44.837,41.726 44.983,41.798 44.939 C 41.870 44.894,41.929 44.994,41.929 45.160 C 41.929 45.338,41.840 45.428,41.714 45.380 C 41.577 45.327,41.501 45.438,41.503 45.691 C 41.505 46.006,41.537 46.034,41.668 45.833 C 41.787 45.649,41.815 45.722,41.772 46.111 C 41.729 46.501,41.772 46.616,41.939 46.552 C 42.063 46.504,42.116 46.386,42.056 46.290 C 41.987 46.178,42.079 46.148,42.307 46.208 C 42.518 46.263,42.675 46.222,42.688 46.109 C 42.700 46.003,42.733 45.767,42.762 45.583 C 42.956 44.366,42.977 43.667,42.821 43.667 C 42.725 43.667,42.689 43.735,42.740 43.818 M135.292 43.787 C 134.726 43.847,134.667 43.900,134.667 44.343 L 134.667 44.833 132.708 44.853 C 131.631 44.864,130.655 44.860,130.539 44.845 C 130.424 44.830,130.281 44.952,130.222 45.117 C 129.925 45.954,129.764 46.000,127.141 46.000 C 125.603 46.000,124.667 46.063,124.667 46.167 C 124.667 46.258,124.568 46.333,124.448 46.333 C 123.878 46.333,123.500 47.278,123.501 48.702 C 123.502 50.577,123.721 51.333,124.262 51.333 C 124.550 51.333,124.723 51.460,124.834 51.753 C 125.042 52.299,125.606 52.500,126.928 52.500 L 128.000 52.500 128.000 58.516 C 128.000 64.949,128.073 65.500,128.928 65.500 C 129.059 65.500,129.167 65.575,129.167 65.667 C 129.167 65.771,130.194 65.833,131.917 65.833 C 133.429 65.833,134.658 65.777,134.647 65.708 C 134.540 65.033,134.694 64.686,135.123 64.636 C 135.927 64.543,135.885 61.971,135.074 61.663 L 134.667 61.508 134.667 55.921 L 134.667 50.333 136.936 50.333 L 139.205 50.333 139.149 57.625 C 139.118 61.635,139.149 65.078,139.219 65.275 C 139.396 65.778,139.828 65.845,142.746 65.824 C 145.431 65.805,145.730 65.726,145.660 65.052 C 145.603 64.504,145.662 64.235,145.794 64.442 C 145.862 64.547,146.104 64.659,146.332 64.692 C 146.645 64.736,146.769 64.874,146.834 65.250 L 146.920 65.750 149.626 65.796 L 152.333 65.842 152.333 65.254 C 152.333 64.678,152.466 64.574,153.104 64.649 C 153.348 64.678,153.519 63.802,153.392 63.167 C 153.308 62.750,153.212 62.667,152.813 62.667 L 152.333 62.667 152.333 56.663 L 152.333 50.658 151.906 50.496 C 151.671 50.406,151.200 50.333,150.859 50.333 C 150.324 50.333,150.214 50.265,150.051 49.833 L 149.862 49.333 147.764 49.333 L 145.667 49.333 145.667 47.158 C 145.667 43.868,145.466 43.678,142.006 43.692 C 139.903 43.701,139.167 43.805,139.167 44.095 C 139.167 44.215,139.093 44.359,139.002 44.415 C 138.910 44.472,138.878 44.411,138.930 44.276 C 139.090 43.858,137.116 43.593,135.292 43.787 M225.658 43.726 C 225.607 43.780,225.329 43.841,225.038 43.863 C 224.611 43.896,224.492 43.992,224.409 44.368 L 224.307 44.833 222.570 44.833 C 221.615 44.833,220.833 44.901,220.833 44.984 C 220.833 45.067,220.687 45.097,220.508 45.050 C 220.149 44.957,220.040 45.229,219.961 46.417 C 219.923 46.986,219.856 47.092,219.500 47.142 C 218.910 47.225,218.872 47.347,218.846 49.224 C 218.822 50.919,218.625 51.500,218.076 51.500 C 217.202 51.500,217.622 59.805,218.511 60.087 C 218.765 60.168,218.837 60.353,218.851 60.970 C 218.884 62.433,218.876 62.413,219.458 62.469 C 219.954 62.517,220.000 62.570,220.000 63.094 C 220.000 63.616,220.043 63.667,220.487 63.667 C 220.887 63.667,220.992 63.751,221.079 64.145 C 221.185 64.628,221.784 64.833,223.089 64.833 C 223.296 64.833,223.706 65.058,224.000 65.333 L 224.535 65.833 227.143 65.817 C 230.028 65.798,230.467 65.729,230.734 65.246 C 230.979 64.804,231.180 64.672,231.614 64.669 C 231.987 64.667,232.279 64.149,232.084 63.835 C 232.027 63.742,232.108 63.667,232.263 63.667 C 232.419 63.667,232.654 63.535,232.786 63.375 C 232.917 63.215,232.970 63.189,232.903 63.317 C 232.822 63.473,232.847 63.511,232.979 63.430 C 233.087 63.363,233.165 63.220,233.151 63.112 C 233.013 61.989,233.178 61.373,233.644 61.280 C 234.279 61.153,234.333 60.826,234.333 57.146 C 234.333 55.335,234.397 54.167,234.495 54.167 C 234.584 54.167,234.608 54.292,234.549 54.446 C 234.469 54.655,234.510 54.698,234.716 54.620 C 234.866 54.562,235.026 54.574,235.071 54.647 C 235.116 54.719,235.429 54.789,235.767 54.802 C 236.104 54.815,236.405 54.850,236.436 54.880 C 236.466 54.910,236.497 57.086,236.505 59.714 C 236.520 64.688,236.518 64.678,237.240 64.791 C 237.646 64.854,237.647 64.854,237.721 65.343 C 237.782 65.748,237.795 65.750,239.960 65.796 C 242.773 65.856,243.033 65.697,243.137 63.853 L 243.204 62.666 242.685 62.562 L 242.167 62.458 242.167 58.646 L 242.167 54.833 243.655 54.833 C 244.931 54.833,245.156 54.792,245.226 54.542 C 245.693 52.883,245.512 51.500,244.828 51.500 C 244.416 51.500,244.348 51.430,244.302 50.958 C 244.253 50.450,244.204 50.412,243.500 50.333 C 243.034 50.282,242.829 50.199,242.958 50.115 C 243.073 50.041,243.167 49.845,243.167 49.681 C 243.167 49.436,243.356 49.361,244.195 49.273 C 245.471 49.140,245.369 49.287,245.385 47.550 C 245.401 45.788,245.296 45.069,245.031 45.125 C 244.922 45.148,244.833 45.092,244.833 45.000 C 244.833 44.908,244.458 44.833,244.000 44.833 C 243.356 44.833,243.167 44.774,243.167 44.573 C 243.167 44.431,243.100 44.355,243.019 44.405 C 242.938 44.455,242.881 44.366,242.894 44.207 C 242.939 43.630,240.098 43.790,240.031 44.368 C 239.981 44.802,239.938 44.820,238.865 44.868 L 237.750 44.917 237.699 45.448 C 237.657 45.880,237.566 45.989,237.213 46.032 C 236.673 46.096,236.551 46.676,236.513 49.375 L 236.500 50.333 235.420 50.333 C 234.401 50.333,234.334 50.309,234.233 49.908 C 234.159 49.612,233.981 49.455,233.647 49.388 C 233.180 49.294,233.167 49.263,233.167 48.264 C 233.167 47.248,233.160 47.234,232.626 47.076 C 232.204 46.952,232.086 46.826,232.085 46.500 C 232.084 46.154,231.994 46.075,231.551 46.032 C 231.088 45.987,231.013 45.912,230.968 45.449 C 230.940 45.156,230.823 44.907,230.708 44.896 C 230.594 44.884,230.131 44.866,229.680 44.854 C 228.915 44.835,228.853 44.800,228.752 44.345 C 228.685 44.038,228.540 43.856,228.364 43.858 C 228.210 43.859,227.558 43.808,226.917 43.745 C 226.275 43.682,225.709 43.673,225.658 43.726 M262.719 43.781 C 262.292 43.839,262.168 43.948,262.081 44.343 L 261.974 44.833 259.898 44.833 C 258.112 44.833,257.808 44.872,257.716 45.112 C 257.405 45.922,257.131 46.000,254.604 46.000 L 252.209 46.000 251.604 46.554 L 251.000 47.107 251.000 48.898 C 251.000 50.875,251.142 51.333,251.753 51.333 C 252.052 51.333,252.189 51.448,252.268 51.762 C 252.406 52.311,252.917 52.500,254.261 52.500 L 255.333 52.500 255.362 57.792 C 255.404 65.400,255.331 64.594,256.037 65.260 L 256.644 65.833 259.322 65.833 L 262.000 65.833 262.000 65.250 C 262.000 64.684,262.207 64.541,262.875 64.647 C 262.944 64.658,263.000 64.586,263.000 64.488 C 263.000 64.390,263.124 64.434,263.276 64.586 C 263.434 64.744,263.716 64.831,263.934 64.789 C 264.258 64.727,264.324 64.794,264.366 65.233 L 264.417 65.750 267.083 65.750 L 269.750 65.750 269.795 62.458 L 269.840 59.167 270.337 59.167 C 270.804 59.167,270.833 59.127,270.833 58.511 C 270.833 58.008,270.909 57.832,271.158 57.753 C 271.337 57.696,271.529 57.503,271.586 57.325 C 271.643 57.146,271.759 57.000,271.845 57.000 C 271.930 57.000,272.000 56.742,272.000 56.427 C 272.000 55.903,272.046 55.850,272.542 55.802 C 272.972 55.761,273.095 55.666,273.141 55.340 C 273.202 54.908,273.650 54.470,273.884 54.615 C 273.960 54.662,274.069 54.524,274.127 54.308 L 274.231 53.917 274.328 54.317 C 274.390 54.576,274.567 54.740,274.827 54.779 C 275.329 54.856,275.325 54.851,275.369 55.388 C 275.405 55.822,275.436 55.834,276.578 55.861 C 277.255 55.878,277.486 55.917,277.125 55.955 C 276.563 56.014,276.500 56.068,276.500 56.500 C 276.500 56.919,276.432 56.985,275.958 57.031 C 275.660 57.060,275.407 57.177,275.396 57.292 C 275.384 57.406,275.366 57.650,275.354 57.833 C 275.339 58.070,275.215 58.167,274.927 58.167 C 274.358 58.167,274.317 58.290,274.246 60.212 C 274.153 62.694,274.308 63.582,274.835 63.587 C 275.161 63.589,275.266 63.693,275.334 64.085 C 275.402 64.477,275.523 64.598,275.917 64.667 C 276.311 64.735,276.432 64.856,276.500 65.251 L 276.587 65.750 279.252 65.750 L 281.917 65.750 281.968 65.309 C 282.049 64.609,283.208 64.504,283.385 65.180 C 283.509 65.653,284.190 65.833,285.852 65.833 C 287.836 65.833,288.305 65.591,288.588 64.417 C 288.610 64.325,288.637 62.535,288.647 60.438 C 288.664 57.076,288.696 56.650,288.916 56.833 C 289.053 56.946,289.315 57.000,289.499 56.952 C 289.793 56.875,290.039 59.761,289.860 61.189 C 289.852 61.247,290.068 61.339,290.340 61.393 L 290.833 61.492 290.853 62.788 C 290.863 63.500,290.882 64.191,290.894 64.322 C 290.907 64.454,291.160 64.625,291.458 64.702 C 291.962 64.833,292.115 65.107,292.020 65.708 C 292.009 65.777,292.746 65.833,293.658 65.833 C 295.298 65.833,295.317 65.838,295.533 66.288 C 295.971 67.201,298.500 67.242,298.500 66.336 C 298.500 65.914,298.567 65.848,299.042 65.802 L 299.583 65.750 299.667 63.000 C 299.744 60.455,299.773 60.254,300.054 60.302 C 300.221 60.330,300.465 60.265,300.596 60.156 C 300.797 59.990,300.833 60.105,300.833 60.907 C 300.833 62.060,301.042 62.500,301.589 62.500 C 301.904 62.500,302.000 62.588,302.001 62.875 C 302.004 64.168,302.384 64.599,303.663 64.760 C 303.890 64.789,304.103 64.893,304.136 64.991 C 304.168 65.089,304.263 65.127,304.346 65.076 C 304.428 65.025,304.449 65.107,304.390 65.258 C 304.204 65.743,304.686 65.828,307.634 65.831 L 310.517 65.833 310.761 65.250 C 310.947 64.805,311.103 64.667,311.419 64.667 C 311.768 64.667,311.833 64.588,311.833 64.167 C 311.833 63.787,311.909 63.667,312.149 63.667 C 312.322 63.667,312.509 63.549,312.564 63.406 C 312.736 62.960,313.000 63.322,313.000 64.002 C 313.000 64.612,313.035 64.658,313.583 64.761 C 314.090 64.856,314.167 64.934,314.167 65.352 L 314.167 65.833 316.917 65.833 L 319.667 65.833 319.667 55.333 L 319.667 44.833 318.511 44.833 C 317.374 44.833,317.355 44.826,317.303 44.375 C 317.203 43.510,314.167 43.640,314.167 44.510 C 314.167 44.729,314.018 44.827,313.625 44.864 L 313.083 44.917 313.039 48.841 L 312.994 52.766 312.414 52.698 C 311.880 52.636,311.833 52.585,311.833 52.073 C 311.833 51.076,310.867 50.333,309.569 50.333 C 308.551 50.333,308.521 50.321,308.469 49.875 L 308.417 49.417 306.917 49.417 L 305.417 49.417 305.364 49.875 C 305.318 50.272,305.237 50.333,304.760 50.333 C 303.603 50.333,303.168 50.509,303.155 50.979 C 303.145 51.368,303.128 51.380,303.009 51.083 C 302.935 50.900,302.906 50.696,302.944 50.630 C 302.982 50.564,302.804 50.464,302.548 50.408 C 301.736 50.229,301.670 50.186,301.777 49.906 C 301.957 49.438,301.504 49.350,298.962 49.352 L 296.500 49.355 296.469 49.886 C 296.452 50.178,296.422 50.567,296.402 50.750 C 296.382 50.933,296.359 51.431,296.350 51.856 C 296.334 52.583,296.303 52.633,295.833 52.702 C 295.298 52.781,295.239 52.617,295.313 51.270 C 295.345 50.675,295.056 50.306,294.607 50.369 C 294.383 50.400,294.195 50.279,294.064 50.019 C 293.744 49.384,293.544 49.339,291.042 49.336 L 288.667 49.333 288.667 51.736 L 288.667 54.138 288.083 53.622 C 287.591 53.186,287.500 52.996,287.500 52.404 C 287.500 51.592,287.362 51.500,286.153 51.500 C 285.456 51.500,285.333 51.452,285.333 51.180 C 285.333 50.574,285.139 50.333,284.649 50.333 C 284.341 50.333,284.159 50.243,284.146 50.083 C 284.134 49.946,284.116 49.740,284.104 49.625 C 284.089 49.473,283.508 49.404,281.958 49.370 L 279.833 49.323 279.833 49.828 L 279.833 50.333 278.542 50.336 C 276.766 50.339,276.500 50.428,276.500 51.019 C 276.500 51.469,276.457 51.500,275.833 51.500 C 275.272 51.500,275.167 51.446,275.167 51.158 C 275.167 50.781,274.316 50.333,273.600 50.333 C 273.275 50.333,273.178 50.237,273.136 49.875 L 273.083 49.417 271.539 49.369 C 270.273 49.329,269.977 49.367,269.896 49.577 C 269.762 49.926,268.667 49.932,268.667 49.583 C 268.667 49.405,268.486 49.333,268.042 49.334 L 267.417 49.334 267.471 47.908 C 267.527 46.417,267.388 46.000,266.833 46.000 C 266.594 46.000,266.527 45.816,266.468 45.004 C 266.428 44.455,266.357 43.969,266.310 43.921 C 266.192 43.803,263.370 43.693,262.719 43.781 M176.916 44.002 C 176.858 44.094,176.769 44.863,176.716 45.710 C 176.649 46.796,176.542 47.334,176.352 47.534 C 175.712 48.210,175.667 48.347,175.667 49.634 C 175.667 50.996,175.532 51.290,174.792 51.553 C 174.542 51.641,174.500 51.882,174.500 53.245 L 174.500 54.833 174.000 54.833 C 173.566 54.833,173.500 54.894,173.498 55.292 C 173.493 56.634,173.335 56.956,172.635 57.050 C 171.884 57.151,171.333 57.568,171.333 58.037 C 171.333 58.545,171.651 59.000,172.006 59.000 C 172.705 59.000,172.285 60.094,171.476 60.379 C 171.113 60.507,171.008 64.650,171.368 64.692 C 171.486 64.706,171.658 64.735,171.750 64.756 C 171.842 64.777,172.010 64.804,172.125 64.814 C 172.240 64.825,172.333 64.940,172.333 65.071 C 172.333 65.686,172.802 65.833,174.751 65.833 L 176.646 65.833 176.698 65.292 C 176.742 64.837,176.829 64.738,177.250 64.666 C 177.736 64.584,177.751 64.553,177.800 63.541 C 177.849 62.510,177.854 62.500,178.341 62.500 C 178.612 62.500,178.818 62.444,178.800 62.375 C 178.649 61.801,179.046 61.500,179.970 61.489 C 180.490 61.482,181.235 61.464,181.625 61.447 L 182.334 61.417 182.333 63.020 L 182.333 64.624 182.959 64.724 C 183.303 64.779,183.710 64.957,183.864 65.120 C 184.509 65.805,184.624 65.833,186.743 65.833 L 188.833 65.833 188.833 65.345 C 188.833 64.992,188.972 64.757,189.333 64.500 C 189.991 64.032,190.016 63.327,189.391 62.872 C 188.986 62.577,188.941 62.430,188.870 61.150 C 188.788 59.671,188.654 59.333,188.146 59.333 C 187.862 59.333,187.833 59.188,187.833 57.742 C 187.833 56.023,187.599 55.273,187.002 55.084 C 186.686 54.984,186.667 54.835,186.664 52.447 C 186.662 49.918,186.560 49.340,186.160 49.588 C 186.022 49.673,185.990 49.651,186.067 49.526 C 186.138 49.412,186.080 49.333,185.927 49.333 C 185.711 49.333,185.666 49.084,185.664 47.875 C 185.661 46.340,185.618 46.193,185.083 45.901 C 184.900 45.801,184.652 45.520,184.533 45.276 C 184.319 44.841,184.286 44.833,182.658 44.833 C 181.332 44.833,181.000 44.786,181.000 44.595 C 181.000 43.916,177.301 43.379,176.916 44.002 M322.111 43.944 C 322.050 44.006,322.000 44.231,322.000 44.444 C 322.000 44.762,321.912 44.833,321.518 44.833 C 320.814 44.833,320.833 44.542,320.833 54.945 L 320.833 64.529 321.333 64.718 C 321.608 64.821,321.842 64.984,321.853 65.078 C 321.863 65.173,321.882 65.362,321.894 65.500 C 321.913 65.709,322.359 65.758,324.606 65.796 L 327.295 65.841 327.400 65.278 C 327.515 64.667,328.474 64.429,328.519 65.000 C 328.530 65.137,328.549 65.362,328.561 65.500 C 328.580 65.709,329.028 65.758,331.292 65.796 L 334.000 65.842 334.000 57.515 L 334.000 49.189 334.455 49.136 C 335.021 49.071,335.311 48.396,335.071 47.708 C 334.957 47.384,334.778 47.235,334.455 47.197 C 334.057 47.151,334.000 47.072,334.000 46.565 L 334.000 45.986 330.750 46.035 C 327.703 46.080,327.500 46.064,327.500 45.781 C 327.500 45.049,327.200 44.833,326.182 44.833 C 325.234 44.833,325.206 44.820,325.108 44.333 L 325.008 43.833 323.615 43.833 C 322.849 43.833,322.172 43.883,322.111 43.944 M203.645 46.275 C 203.490 46.462,203.399 47.152,203.361 48.429 L 203.305 50.307 202.194 50.362 C 200.381 50.451,200.000 50.375,200.000 49.924 C 200.000 49.413,199.741 49.333,198.070 49.333 C 196.934 49.333,196.667 49.381,196.667 49.583 C 196.667 49.758,196.491 49.833,196.083 49.833 C 195.676 49.833,195.500 49.758,195.500 49.583 C 195.500 49.323,191.584 49.204,190.710 49.438 C 190.059 49.612,189.993 50.391,190.004 57.722 L 190.014 64.634 190.431 64.739 C 190.661 64.796,190.915 64.802,190.997 64.752 C 191.078 64.702,191.169 64.906,191.198 65.205 L 191.250 65.750 193.958 65.801 L 196.667 65.852 196.667 62.509 L 196.667 59.167 197.152 59.167 C 197.589 59.167,197.649 59.100,197.750 58.498 C 197.819 58.094,197.989 57.762,198.182 57.659 C 198.357 57.565,198.500 57.378,198.500 57.244 C 198.500 57.110,198.575 57.000,198.667 57.000 C 198.758 57.000,198.833 56.737,198.833 56.417 C 198.833 55.861,198.861 55.833,199.417 55.833 C 199.955 55.833,200.000 55.794,200.000 55.329 C 200.000 54.902,200.077 54.810,200.502 54.725 C 200.779 54.669,200.995 54.540,200.983 54.437 C 200.907 53.800,201.011 53.667,201.583 53.667 C 202.047 53.667,202.167 53.732,202.167 53.986 C 202.167 54.593,202.361 54.833,202.851 54.833 L 203.333 54.833 203.333 59.742 L 203.333 64.652 203.917 64.761 C 204.388 64.850,204.500 64.946,204.500 65.265 C 204.500 65.802,204.806 65.855,207.583 65.798 L 209.917 65.750 209.961 60.292 L 210.005 54.833 211.086 54.833 L 212.167 54.833 212.164 52.875 C 212.161 50.453,212.106 50.379,210.292 50.340 C 209.717 50.327,209.899 49.167,210.475 49.167 C 210.940 49.167,210.951 49.146,210.979 48.189 L 211.009 47.212 210.379 47.108 C 210.033 47.050,209.544 47.003,209.292 47.002 C 208.962 47.001,208.833 46.916,208.833 46.700 C 208.833 46.085,208.507 46.000,206.154 46.000 C 204.239 46.000,203.838 46.044,203.645 46.275 M41.052 46.298 C 40.241 46.813,40.357 49.323,41.192 49.331 C 41.731 49.336,41.997 46.978,41.493 46.659 C 41.327 46.554,41.316 46.504,41.458 46.503 C 41.573 46.501,41.667 46.425,41.667 46.333 C 41.667 46.138,41.334 46.118,41.052 46.298 M39.507 49.733 C 39.423 49.952,39.378 50.477,39.406 50.899 C 39.453 51.599,39.424 51.667,39.082 51.667 C 38.584 51.667,38.275 52.067,38.375 52.586 C 38.419 52.818,38.390 53.048,38.311 53.097 C 38.232 53.146,38.167 53.367,38.167 53.587 C 38.167 53.818,38.025 54.064,37.833 54.167 C 37.650 54.265,37.500 54.449,37.500 54.575 C 37.500 54.702,37.408 54.836,37.296 54.873 C 37.140 54.925,37.136 55.082,37.277 55.540 C 37.412 55.981,37.411 56.189,37.273 56.327 C 37.036 56.564,37.434 56.848,37.804 56.706 C 37.966 56.644,38.013 56.678,37.935 56.803 C 37.857 56.929,37.906 56.962,38.075 56.897 C 38.264 56.824,38.333 56.558,38.333 55.910 C 38.333 54.935,38.579 54.093,38.820 54.242 C 39.067 54.395,39.499 53.848,39.513 53.363 C 39.537 52.524,39.795 51.623,39.978 51.737 C 40.388 51.990,40.982 49.882,40.607 49.507 C 40.283 49.183,39.667 49.310,39.507 49.733 M158.117 49.438 C 158.053 49.503,158.000 49.731,158.000 49.944 C 158.000 50.254,157.907 50.336,157.542 50.347 C 157.290 50.355,156.896 50.393,156.667 50.432 C 156.438 50.471,156.160 50.515,156.049 50.529 C 155.938 50.544,155.887 50.618,155.934 50.694 C 155.981 50.771,155.940 50.833,155.843 50.833 C 155.746 50.833,155.667 50.982,155.667 51.163 C 155.667 51.374,155.520 51.530,155.262 51.595 C 154.784 51.715,154.734 51.822,154.579 53.057 C 154.501 53.683,154.385 54.000,154.235 54.000 C 153.641 54.000,153.500 54.871,153.500 58.542 C 153.500 62.197,153.552 62.500,154.173 62.500 C 154.369 62.500,154.506 62.763,154.654 63.426 C 154.890 64.481,155.146 64.656,156.690 64.822 C 156.749 64.828,156.844 65.020,156.901 65.247 C 157.042 65.810,157.318 65.853,160.499 65.798 L 163.247 65.750 163.333 65.250 C 163.405 64.830,163.504 64.742,163.959 64.698 C 164.435 64.652,164.500 64.586,164.500 64.156 C 164.500 63.832,164.585 63.667,164.750 63.667 C 165.602 63.667,166.223 59.536,165.417 59.227 C 165.105 59.107,165.102 58.877,165.405 58.296 C 165.584 57.954,165.635 57.218,165.613 55.296 L 165.583 52.750 165.042 52.698 C 164.563 52.652,164.500 52.587,164.500 52.149 C 164.500 51.108,163.523 50.333,162.210 50.333 C 161.497 50.333,161.161 50.267,161.147 50.125 C 161.137 50.010,161.118 49.804,161.106 49.667 C 161.082 49.400,158.363 49.193,158.117 49.438 M335.243 49.542 C 335.082 49.965,335.249 65.316,335.417 65.473 C 335.724 65.761,336.391 65.897,336.246 65.643 C 336.143 65.460,336.161 65.457,336.342 65.625 C 336.996 66.231,341.977 65.803,341.588 65.174 C 341.529 65.078,341.560 65.000,341.657 65.000 C 341.754 65.000,341.833 64.886,341.833 64.747 C 341.833 64.555,341.945 64.520,342.292 64.603 C 342.960 64.763,343.000 64.805,343.000 65.343 L 343.000 65.833 345.715 65.833 L 348.429 65.833 348.470 65.300 C 348.518 64.666,348.499 64.690,349.010 64.612 C 349.706 64.506,349.684 62.667,348.988 62.667 L 348.500 62.667 348.500 56.750 C 348.500 52.697,348.444 50.833,348.323 50.833 C 348.226 50.833,348.188 50.766,348.239 50.684 C 348.345 50.513,347.869 50.391,346.923 50.348 C 346.149 50.313,346.191 50.340,346.112 49.823 C 345.990 49.016,341.262 49.183,341.048 50.002 C 340.916 50.507,340.667 50.397,340.667 49.833 L 340.667 49.333 337.995 49.333 C 336.011 49.333,335.302 49.387,335.243 49.542 M353.877 49.543 C 353.207 50.215,352.992 50.356,352.561 50.406 C 352.298 50.437,352.027 50.471,351.958 50.481 C 351.890 50.491,351.833 50.725,351.833 51.000 C 351.833 51.411,351.765 51.500,351.450 51.500 C 350.864 51.500,350.667 51.818,350.667 52.762 C 350.667 53.587,350.645 53.629,350.167 53.725 L 349.667 53.825 349.667 57.963 C 349.667 62.252,349.705 62.500,350.367 62.500 C 350.536 62.500,350.672 62.627,350.679 62.792 C 350.686 62.952,350.717 63.215,350.748 63.375 C 350.792 63.607,350.687 63.667,350.235 63.667 L 349.667 63.667 349.667 65.428 C 349.667 67.397,349.772 67.721,350.496 67.974 C 350.774 68.071,351.000 68.269,351.000 68.417 C 351.000 68.813,352.020 69.167,353.165 69.167 C 354.073 69.167,354.190 69.206,354.325 69.561 C 354.587 70.251,355.767 70.207,355.952 69.500 C 356.032 69.194,356.180 69.167,357.769 69.167 L 359.500 69.167 359.500 68.583 C 359.500 68.049,359.541 68.000,359.989 68.000 C 361.011 68.000,361.917 67.141,361.815 66.267 C 361.803 66.166,361.803 63.295,361.814 59.886 L 361.833 53.689 362.292 53.636 L 362.750 53.583 362.750 52.000 C 362.750 50.536,362.725 50.415,362.417 50.393 C 362.233 50.380,361.995 50.361,361.886 50.351 C 361.778 50.341,361.665 50.127,361.636 49.875 L 361.583 49.417 357.833 49.377 C 355.025 49.346,354.032 49.388,353.877 49.543 M227.667 54.314 C 227.667 58.146,227.654 58.298,227.335 58.381 C 226.960 58.479,226.667 59.120,226.667 59.844 C 226.667 60.292,226.617 60.333,226.083 60.333 L 225.500 60.333 225.484 59.208 C 225.455 57.221,225.467 57.265,224.875 57.091 L 224.333 56.931 224.333 55.315 L 224.333 53.699 224.820 53.530 C 225.255 53.378,225.318 53.264,225.422 52.430 C 225.533 51.547,225.562 51.500,226.012 51.500 C 226.421 51.500,226.500 51.421,226.594 50.917 C 226.689 50.410,226.767 50.333,227.185 50.333 L 227.667 50.333 227.667 54.314 M263.150 56.542 C 263.141 59.956,263.081 62.563,263.018 62.333 C 262.955 62.104,262.699 61.819,262.451 61.699 L 262.000 61.482 262.000 55.908 L 262.000 50.333 262.583 50.333 L 263.167 50.333 263.150 56.542 M146.833 59.315 L 146.833 62.464 146.377 62.578 C 146.126 62.642,145.864 62.781,145.796 62.888 C 145.728 62.996,145.671 61.721,145.669 60.055 L 145.667 57.026 146.167 56.917 C 146.511 56.841,146.667 56.707,146.667 56.487 C 146.667 56.311,146.704 56.167,146.750 56.167 C 146.796 56.167,146.833 57.584,146.833 59.315 M343.000 59.459 L 343.000 62.418 342.417 62.601 L 341.833 62.784 341.833 59.892 L 341.833 57.000 342.333 57.000 C 342.667 57.000,342.833 56.917,342.833 56.750 C 342.833 56.612,342.871 56.500,342.917 56.500 C 342.962 56.500,343.000 57.832,343.000 59.459 M36.721 57.037 C 36.121 57.230,35.929 57.703,36.094 58.581 C 36.188 59.084,36.147 59.168,35.691 59.404 C 35.363 59.574,35.129 59.860,35.032 60.209 C 34.949 60.506,34.683 61.042,34.441 61.398 C 34.198 61.755,34.000 62.162,34.000 62.303 C 34.000 62.444,33.737 62.800,33.417 63.094 C 32.998 63.478,32.837 63.763,32.846 64.106 C 32.854 64.368,32.898 64.489,32.944 64.373 C 32.991 64.257,33.179 64.082,33.363 63.984 C 33.675 63.817,33.672 63.839,33.322 64.313 C 33.116 64.592,32.884 64.781,32.807 64.734 C 32.730 64.686,32.667 64.759,32.667 64.896 C 32.667 65.032,32.525 65.189,32.351 65.244 C 31.909 65.385,31.606 66.209,31.738 66.914 C 31.799 67.236,31.789 67.502,31.716 67.505 C 31.387 67.518,30.650 68.373,30.554 68.854 C 30.491 69.172,30.511 69.346,30.606 69.288 C 30.697 69.231,30.737 69.420,30.700 69.738 C 30.650 70.164,30.518 70.338,30.109 70.518 C 29.496 70.789,29.113 72.108,29.478 72.694 C 29.583 72.862,29.600 73.000,29.515 73.000 C 29.430 73.000,29.334 72.918,29.301 72.819 C 29.075 72.141,28.415 73.360,28.384 74.511 C 28.352 75.690,28.217 75.991,27.714 75.997 C 27.375 76.002,27.148 76.635,27.230 77.349 C 27.302 77.977,27.272 78.039,26.820 78.196 C 26.316 78.372,26.044 78.939,26.230 79.425 C 26.295 79.593,26.262 79.642,26.139 79.566 C 26.003 79.482,25.976 79.623,26.047 80.057 C 26.120 80.510,26.087 80.667,25.918 80.667 C 25.034 80.667,24.691 82.900,25.504 83.366 C 25.773 83.521,25.983 83.596,25.970 83.532 C 25.958 83.469,25.990 83.304,26.043 83.167 C 26.096 83.029,26.177 82.585,26.224 82.180 C 26.271 81.775,26.408 81.383,26.530 81.310 C 26.651 81.236,26.844 81.113,26.958 81.037 C 27.136 80.918,27.532 79.358,27.550 78.708 C 27.553 78.594,27.590 78.535,27.633 78.577 C 27.994 78.938,28.667 77.555,28.667 76.453 C 28.667 76.195,28.806 75.990,29.060 75.874 C 29.445 75.699,29.695 75.076,29.746 74.167 C 29.780 73.548,30.013 73.136,30.272 73.235 C 30.397 73.283,30.503 73.231,30.507 73.120 C 30.511 73.008,30.576 72.600,30.651 72.213 C 30.729 71.806,30.724 71.548,30.639 71.601 C 30.557 71.651,30.531 71.461,30.581 71.179 C 30.642 70.835,30.604 70.667,30.465 70.667 C 30.352 70.667,30.426 70.550,30.630 70.407 C 30.834 70.264,31.087 70.201,31.193 70.266 C 31.320 70.345,31.339 70.311,31.248 70.164 C 31.149 70.004,31.188 69.973,31.389 70.050 C 31.581 70.123,31.668 70.068,31.670 69.870 C 31.672 69.712,31.821 69.396,32.000 69.167 C 32.179 68.938,32.328 68.652,32.330 68.532 C 32.332 68.412,32.393 68.350,32.465 68.395 C 32.582 68.468,32.646 68.239,32.705 67.542 C 32.714 67.427,32.789 67.333,32.871 67.333 C 32.953 67.333,32.966 67.247,32.901 67.141 C 32.835 67.035,32.850 66.989,32.933 67.038 C 33.302 67.257,33.794 66.843,33.905 66.221 C 34.097 65.138,34.172 65.000,34.571 65.000 C 34.921 65.000,34.966 64.897,35.102 63.792 C 35.233 62.725,35.293 62.577,35.619 62.531 C 36.026 62.473,36.136 62.098,36.208 60.513 C 36.245 59.709,36.291 59.607,36.625 59.583 C 36.831 59.568,37.044 59.512,37.098 59.458 C 37.180 59.375,37.358 56.801,37.278 56.850 C 37.263 56.860,37.012 56.944,36.721 57.037 M313.000 58.661 C 313.000 59.180,312.946 59.302,312.751 59.227 C 312.576 59.160,312.534 59.001,312.608 58.691 C 312.826 57.777,313.000 57.763,313.000 58.661 M160.958 59.282 C 160.798 59.323,160.535 59.323,160.375 59.282 C 160.215 59.240,160.346 59.205,160.667 59.205 C 160.987 59.205,161.119 59.240,160.958 59.282 M308.667 59.232 C 308.667 59.268,308.404 59.328,308.083 59.365 C 307.762 59.402,307.500 59.373,307.500 59.300 C 307.500 59.227,307.762 59.167,308.083 59.167 C 308.404 59.167,308.667 59.196,308.667 59.232 M36.000 59.994 C 36.000 60.083,35.844 60.238,35.654 60.340 C 35.338 60.509,35.324 60.496,35.493 60.179 C 35.684 59.824,36.000 59.708,36.000 59.994 M34.941 62.238 C 34.924 62.513,34.799 62.666,34.549 62.714 L 34.182 62.784 34.549 62.318 C 34.751 62.062,34.927 61.848,34.941 61.843 C 34.954 61.837,34.954 62.016,34.941 62.238 M32.168 66.415 C 32.055 66.551,32.008 66.780,32.063 66.923 C 32.120 67.073,32.093 67.141,31.998 67.082 C 31.774 66.944,31.791 66.609,32.033 66.367 C 32.317 66.083,32.414 66.118,32.168 66.415 M73.602 68.024 C 73.549 68.606,73.465 69.683,73.413 70.417 C 73.288 72.218,73.026 73.469,72.742 73.628 C 72.597 73.709,72.389 74.458,72.198 75.588 C 72.028 76.594,71.734 77.754,71.545 78.167 C 71.357 78.579,71.085 79.479,70.942 80.167 C 70.515 82.216,68.975 85.282,68.229 85.568 C 68.103 85.617,68.000 85.813,68.000 86.006 C 68.000 86.198,67.928 86.489,67.841 86.652 C 67.671 86.970,72.905 87.328,73.214 87.019 C 73.529 86.705,74.037 78.019,73.800 76.994 C 73.646 76.326,73.663 76.032,73.900 75.280 C 74.246 74.180,74.238 67.504,73.890 67.157 C 73.744 67.010,73.674 67.220,73.602 68.024 M81.392 73.083 C 81.392 73.908,81.420 74.267,81.455 73.880 C 81.490 73.493,81.490 72.818,81.456 72.380 C 81.422 71.942,81.393 72.258,81.392 73.083 M23.937 83.949 C 23.887 84.114,23.873 84.586,23.906 84.997 C 23.963 85.707,23.940 85.753,23.443 85.914 C 23.156 86.007,22.896 86.215,22.865 86.375 C 22.791 86.758,23.117 86.753,23.238 86.370 C 23.294 86.194,23.520 86.058,23.791 86.036 L 24.250 85.999 23.700 86.336 C 23.369 86.538,23.197 86.748,23.269 86.864 C 23.347 86.990,23.298 87.022,23.130 86.957 C 22.933 86.882,22.890 86.945,22.950 87.221 C 23.014 87.514,22.995 87.536,22.850 87.333 C 22.718 87.147,22.671 87.438,22.669 88.468 C 22.667 89.484,22.719 89.821,22.862 89.732 C 22.992 89.652,23.022 89.702,22.953 89.881 C 22.883 90.064,22.923 90.122,23.077 90.063 C 23.207 90.013,23.348 90.117,23.408 90.307 C 23.554 90.767,24.352 91.004,25.650 90.975 L 26.750 90.951 25.776 90.847 C 25.136 90.779,24.729 90.645,24.591 90.455 C 24.475 90.296,24.294 90.167,24.190 90.167 C 24.024 90.167,23.958 89.814,23.958 88.917 C 23.958 86.434,23.972 86.366,24.500 86.250 C 25.029 86.134,25.053 86.053,25.066 84.333 C 25.071 83.649,24.126 83.327,23.937 83.949 M63.549 91.124 C 64.171 91.156,65.146 91.156,65.715 91.123 C 66.284 91.091,65.775 91.064,64.583 91.065 C 63.392 91.065,62.926 91.092,63.549 91.124 M18.500 94.386 C 18.500 94.660,18.910 95.327,19.130 95.411 C 19.539 95.568,19.507 95.442,18.990 94.849 C 18.720 94.541,18.500 94.332,18.500 94.386 M82.750 96.167 C 82.484 96.461,82.480 96.500,82.718 96.500 C 82.867 96.500,83.069 96.350,83.167 96.167 C 83.265 95.983,83.279 95.833,83.198 95.833 C 83.118 95.833,82.916 95.983,82.750 96.167 M68.000 96.880 C 68.176 97.058,72.092 97.833,72.737 97.817 L 73.417 97.800 72.691 97.572 C 72.292 97.447,71.354 97.266,70.608 97.169 C 69.861 97.073,68.950 96.949,68.583 96.895 C 68.217 96.840,67.954 96.833,68.000 96.880 M79.468 98.292 C 78.954 98.890,78.955 99.055,79.470 98.688 C 79.761 98.480,80.000 98.241,80.000 98.155 C 80.000 97.908,79.740 97.975,79.468 98.292 M72.333 98.751 C 71.946 99.216,72.311 100.265,72.834 100.191 C 73.245 100.132,73.247 100.135,72.936 100.479 C 72.763 100.669,72.562 100.789,72.489 100.743 C 72.416 100.698,72.312 100.732,72.259 100.819 C 72.100 101.077,72.441 101.181,72.888 101.011 C 73.117 100.924,73.354 100.698,73.414 100.510 C 73.485 100.286,73.665 100.167,73.932 100.167 C 74.980 100.167,74.797 99.165,73.691 98.850 C 73.292 98.736,72.873 98.607,72.759 98.564 C 72.646 98.520,72.454 98.605,72.333 98.751 M48.958 101.290 C 49.440 101.323,50.227 101.323,50.708 101.290 C 51.190 101.256,50.796 101.228,49.833 101.228 C 48.871 101.228,48.477 101.256,48.958 101.290 " stroke="none" fill="#24145c" fill-rule="evenodd"></path><path id="path3" d="M64.734 8.692 C 64.658 8.815,64.689 8.839,64.818 8.759 C 64.932 8.689,65.162 8.762,65.344 8.926 C 65.729 9.275,65.780 9.137,65.405 8.762 C 65.094 8.451,64.896 8.430,64.734 8.692 M64.978 9.224 C 65.080 9.347,65.128 9.497,65.083 9.558 C 65.039 9.619,65.086 9.600,65.187 9.516 C 65.391 9.345,65.246 9.000,64.970 9.000 C 64.849 9.000,64.851 9.071,64.978 9.224 M67.000 13.740 C 67.000 14.043,67.069 14.130,67.252 14.059 C 67.391 14.006,67.616 14.055,67.752 14.168 C 67.888 14.282,68.000 14.304,68.000 14.218 C 68.000 14.133,67.775 13.896,67.500 13.693 L 67.000 13.323 67.000 13.740 M47.775 32.610 C 47.606 32.837,47.500 33.056,47.540 33.096 C 47.656 33.212,48.207 32.537,48.142 32.358 C 48.110 32.270,47.945 32.383,47.775 32.610 M74.023 33.152 C 74.240 33.328,74.454 33.434,74.500 33.389 C 74.597 33.291,74.006 32.833,73.783 32.833 C 73.699 32.833,73.807 32.977,74.023 33.152 M45.583 39.128 C 45.492 39.195,45.394 39.384,45.366 39.549 C 45.307 39.897,45.924 39.604,46.075 39.212 C 46.163 38.982,45.853 38.929,45.583 39.128 M75.833 41.388 C 75.833 41.693,76.822 42.041,76.833 41.740 C 76.833 41.734,76.608 41.563,76.333 41.360 L 75.833 40.990 75.833 41.388 M76.833 42.887 C 76.833 42.916,77.058 43.192,77.333 43.500 C 77.778 43.998,77.833 44.021,77.833 43.706 C 77.833 43.511,77.667 43.235,77.463 43.093 C 77.121 42.853,76.833 42.759,76.833 42.887 M78.000 47.223 C 78.000 47.259,78.237 47.579,78.526 47.935 C 78.815 48.292,79.003 48.446,78.943 48.278 C 78.883 48.110,78.833 47.912,78.833 47.839 C 78.833 47.765,78.646 47.582,78.417 47.432 C 78.188 47.282,78.000 47.188,78.000 47.223 M74.071 67.555 C 74.124 67.723,74.175 69.336,74.185 71.139 C 74.199 73.678,74.239 74.248,74.363 73.667 C 74.564 72.727,74.401 67.910,74.156 67.531 C 73.992 67.277,73.984 67.279,74.071 67.555 M73.960 78.333 C 73.774 79.714,73.802 80.987,74.012 80.628 C 74.104 80.469,74.158 79.682,74.132 78.878 C 74.084 77.447,74.081 77.436,73.960 78.333 M73.714 83.250 C 73.716 83.708,73.748 83.876,73.786 83.623 C 73.825 83.369,73.824 82.994,73.784 82.789 C 73.744 82.584,73.713 82.792,73.714 83.250 M73.545 85.000 C 73.545 85.412,73.578 85.581,73.618 85.375 C 73.657 85.169,73.657 84.831,73.618 84.625 C 73.578 84.419,73.545 84.587,73.545 85.000 M28.583 90.500 C 28.289 90.826,28.292 90.833,28.735 90.833 C 29.252 90.833,29.833 90.566,29.833 90.327 C 29.833 90.032,28.889 90.162,28.583 90.500 M71.217 90.802 C 71.098 90.876,71.073 91.015,71.156 91.150 C 71.350 91.463,71.644 91.312,71.519 90.964 C 71.458 90.795,71.335 90.729,71.217 90.802 M43.833 95.941 C 36.995 96.573,33.094 97.356,31.372 98.445 C 30.889 98.750,30.392 99.000,30.268 99.000 C 29.796 99.000,29.807 99.985,30.286 100.585 C 30.914 101.372,30.133 101.347,52.455 101.296 L 72.160 101.250 72.705 100.696 C 73.243 100.149,73.244 100.142,72.834 100.196 C 72.301 100.265,71.930 99.166,72.345 98.750 C 72.625 98.471,74.597 98.972,74.567 99.315 C 74.558 99.417,74.539 99.617,74.525 99.760 C 74.510 99.916,74.417 99.973,74.292 99.902 C 74.160 99.828,74.168 99.870,74.312 100.017 C 74.489 100.196,74.559 100.202,74.618 100.043 C 74.672 99.896,74.782 99.883,75.001 100.001 C 75.339 100.182,75.833 100.061,75.833 99.798 C 75.833 99.706,75.725 99.673,75.592 99.724 C 75.431 99.786,75.381 99.736,75.443 99.576 C 75.493 99.443,75.590 99.369,75.656 99.410 C 75.723 99.452,75.778 99.384,75.778 99.261 C 75.778 99.137,75.505 98.954,75.171 98.854 C 74.837 98.754,74.386 98.484,74.169 98.253 C 73.845 97.908,73.620 97.833,72.899 97.833 C 72.418 97.833,71.024 97.602,69.803 97.318 C 65.361 96.288,49.297 95.436,43.833 95.941 " stroke="none" fill="#973047" fill-rule="evenodd"></path><path id="path4" d="M58.806 8.136 C 58.339 8.630,57.959 9.814,58.344 9.577 C 58.494 9.484,58.526 9.525,58.452 9.717 C 58.395 9.867,58.431 10.041,58.533 10.104 C 58.645 10.173,58.671 10.142,58.599 10.026 C 58.530 9.914,58.582 9.833,58.722 9.833 C 59.050 9.833,59.186 10.243,58.945 10.504 C 58.794 10.668,58.800 10.687,58.975 10.588 C 59.257 10.428,58.939 11.081,58.648 11.262 C 58.517 11.343,58.520 11.410,58.661 11.497 C 58.809 11.588,58.802 11.676,58.633 11.851 C 58.509 11.979,58.384 12.383,58.355 12.750 C 58.292 13.541,58.079 13.852,57.696 13.709 C 57.453 13.618,57.446 13.640,57.645 13.885 C 57.807 14.084,57.816 14.167,57.677 14.167 C 57.569 14.167,57.532 14.250,57.595 14.352 C 57.658 14.454,57.621 14.592,57.514 14.658 C 57.324 14.776,57.152 16.168,57.329 16.165 C 57.640 16.159,58.508 14.958,58.646 14.342 C 58.882 13.293,59.261 12.960,59.416 13.666 C 59.553 14.287,59.374 16.000,59.173 16.000 C 58.981 16.000,58.809 16.469,58.714 17.250 C 58.670 17.617,58.486 18.329,58.305 18.833 C 58.125 19.337,57.902 20.050,57.810 20.417 C 57.718 20.783,57.502 21.571,57.330 22.167 C 57.084 23.016,56.998 24.007,56.932 26.750 C 56.850 30.155,56.431 33.790,55.986 34.948 C 55.887 35.206,55.699 36.467,55.567 37.750 C 55.435 39.033,55.216 40.571,55.079 41.167 C 54.942 41.762,54.689 43.124,54.517 44.192 C 54.345 45.261,54.013 46.948,53.779 47.942 C 53.546 48.937,53.273 50.404,53.173 51.204 C 53.073 52.004,52.848 53.129,52.673 53.704 C 52.497 54.279,52.238 55.652,52.097 56.755 C 51.955 57.858,51.724 59.133,51.583 59.588 C 51.442 60.044,51.179 61.453,50.999 62.719 C 50.820 63.986,50.565 65.339,50.434 65.726 C 50.302 66.112,50.106 67.064,49.998 67.839 C 49.731 69.750,49.387 71.569,49.093 72.632 C 48.958 73.117,48.766 74.280,48.666 75.215 C 48.566 76.151,48.337 77.448,48.157 78.098 C 47.978 78.747,47.718 80.135,47.579 81.181 C 47.441 82.227,47.213 83.511,47.074 84.033 C 46.935 84.556,46.675 85.746,46.498 86.678 C 46.136 88.576,45.474 89.652,44.389 90.106 C 43.919 90.302,43.833 90.422,43.833 90.887 C 43.833 92.762,47.019 93.498,47.962 91.841 C 48.120 91.563,48.335 91.335,48.438 91.334 C 48.814 91.332,49.023 90.893,48.754 90.670 C 48.616 90.556,48.545 90.396,48.595 90.314 C 48.645 90.233,48.568 90.167,48.422 90.167 C 47.821 90.167,47.611 87.836,48.091 86.479 C 48.467 85.418,48.640 84.558,48.840 82.762 C 48.938 81.884,49.164 80.743,49.341 80.227 C 49.519 79.712,49.812 78.260,49.994 77.001 C 50.176 75.742,50.507 74.120,50.729 73.398 C 50.956 72.660,51.170 71.462,51.217 70.667 C 51.263 69.887,51.457 68.688,51.647 68.000 C 51.837 67.313,52.102 66.037,52.237 65.167 C 52.371 64.296,52.711 62.496,52.991 61.167 C 53.272 59.837,53.652 58.000,53.837 57.083 C 54.022 56.167,54.284 54.892,54.420 54.250 C 54.556 53.608,54.861 52.071,55.099 50.833 C 55.336 49.596,55.631 48.246,55.754 47.833 C 55.877 47.421,56.140 46.071,56.339 44.833 C 56.538 43.596,56.803 42.336,56.928 42.034 C 57.054 41.731,57.237 40.831,57.335 40.034 C 57.545 38.331,57.974 36.204,58.189 35.796 C 58.272 35.638,58.450 34.680,58.583 33.666 C 58.717 32.653,59.012 31.057,59.239 30.120 C 59.466 29.183,59.734 27.779,59.836 27.000 C 59.938 26.221,60.159 25.021,60.327 24.333 C 60.653 23.000,60.923 21.465,61.081 20.040 C 61.259 18.444,61.981 15.520,62.434 14.562 C 62.853 13.676,62.875 13.517,62.781 11.989 C 62.683 10.370,62.685 10.356,63.174 9.740 C 63.445 9.400,63.667 9.056,63.667 8.977 C 63.667 8.898,63.854 8.833,64.083 8.833 C 65.150 8.833,64.454 8.411,63.286 8.350 C 62.847 8.326,62.285 8.201,62.036 8.071 C 61.446 7.764,60.846 7.770,60.495 8.088 C 60.340 8.228,59.989 8.360,59.715 8.380 C 59.415 8.402,59.224 8.507,59.234 8.644 C 59.243 8.768,59.089 8.932,58.891 9.007 C 58.525 9.147,58.425 8.836,58.744 8.546 C 58.823 8.475,58.833 8.510,58.767 8.625 C 58.701 8.740,58.732 8.833,58.837 8.833 C 58.942 8.833,58.994 8.740,58.952 8.625 C 58.911 8.510,58.992 8.285,59.132 8.124 C 59.557 7.637,59.268 7.647,58.806 8.136 M57.615 10.467 C 57.200 10.900,56.966 11.811,57.326 11.588 C 57.414 11.534,57.442 11.375,57.388 11.236 C 57.273 10.936,57.972 10.130,58.217 10.281 C 58.312 10.340,58.333 10.302,58.266 10.192 C 58.109 9.939,58.129 9.930,57.615 10.467 M56.998 16.792 C 56.875 17.044,56.788 17.306,56.804 17.375 C 56.820 17.444,56.754 17.500,56.657 17.500 C 56.560 17.500,56.527 17.575,56.583 17.667 C 56.640 17.758,56.607 17.833,56.510 17.833 C 56.413 17.833,56.349 17.890,56.368 17.958 C 56.435 18.204,55.301 20.420,55.028 20.576 C 54.601 20.821,53.478 20.794,53.582 20.542 C 53.873 19.829,53.831 19.800,53.275 20.324 C 52.711 20.857,52.667 20.969,52.667 21.866 C 52.667 22.605,52.608 22.838,52.417 22.854 C 52.279 22.866,52.080 22.884,51.974 22.896 C 51.695 22.926,51.626 23.371,51.592 25.333 C 51.555 27.541,51.577 27.445,51.083 27.568 C 50.531 27.707,50.521 28.148,51.073 28.043 C 51.480 27.965,51.833 27.313,51.833 26.638 C 51.833 26.466,52.022 26.240,52.254 26.135 C 52.740 25.913,52.812 25.676,52.872 24.083 C 52.915 22.958,52.932 22.915,53.359 22.865 C 53.667 22.830,53.833 22.691,53.903 22.410 C 53.959 22.188,54.210 21.899,54.461 21.769 C 55.208 21.380,55.643 20.793,56.009 19.680 C 56.198 19.102,56.538 18.350,56.764 18.009 C 57.206 17.341,57.557 16.333,57.348 16.333 C 57.278 16.333,57.120 16.540,56.998 16.792 M52.667 23.417 C 52.667 23.750,52.583 23.833,52.250 23.833 C 51.762 23.833,51.732 23.721,52.109 23.305 C 52.487 22.887,52.667 22.923,52.667 23.417 M50.542 29.083 C 50.544 29.450,50.578 29.580,50.618 29.373 C 50.658 29.166,50.656 28.866,50.615 28.706 C 50.573 28.547,50.540 28.717,50.542 29.083 M49.517 30.167 C 49.452 30.212,49.378 30.850,49.353 31.582 C 49.301 33.113,49.349 32.989,48.788 33.035 C 48.523 33.057,48.322 33.193,48.272 33.384 C 48.212 33.613,48.098 33.667,47.845 33.587 C 47.655 33.527,47.500 33.545,47.500 33.628 C 47.500 33.710,47.594 33.781,47.708 33.784 C 47.823 33.788,47.992 33.810,48.083 33.834 C 48.872 34.037,49.494 33.255,49.498 32.055 C 49.501 31.103,49.634 30.833,50.101 30.833 C 50.411 30.833,50.500 30.744,50.500 30.434 C 50.500 30.052,49.910 29.891,49.517 30.167 M47.186 33.600 C 47.175 33.792,46.998 34.030,46.792 34.130 C 46.585 34.229,46.510 34.316,46.625 34.322 C 46.740 34.328,46.833 34.416,46.833 34.518 C 46.833 34.619,46.725 34.661,46.592 34.610 C 46.422 34.545,46.381 34.597,46.453 34.786 C 46.517 34.951,46.489 35.013,46.382 34.947 C 46.280 34.884,46.164 35.056,46.104 35.357 C 45.942 36.165,45.964 36.199,46.583 36.115 C 46.904 36.072,47.167 36.096,47.167 36.169 C 47.167 36.331,47.836 36.181,48.125 35.956 C 48.240 35.866,48.333 35.609,48.333 35.384 C 48.333 35.018,48.307 35.002,48.079 35.231 C 47.938 35.371,47.721 35.446,47.595 35.398 C 47.470 35.350,47.320 35.387,47.262 35.481 C 47.203 35.575,47.034 35.605,46.884 35.548 C 46.681 35.470,46.648 35.503,46.755 35.680 C 46.876 35.882,46.856 35.883,46.615 35.688 C 46.207 35.357,46.269 35.149,46.750 35.236 C 46.979 35.277,47.167 35.233,47.167 35.138 C 47.167 35.042,47.035 35.010,46.875 35.066 C 46.622 35.154,46.616 35.140,46.833 34.958 C 47.150 34.693,47.228 34.333,46.968 34.333 C 46.859 34.333,46.905 34.235,47.070 34.114 C 47.249 33.983,47.337 33.765,47.287 33.572 C 47.212 33.274,47.204 33.277,47.186 33.600 M46.368 37.595 C 46.162 37.739,46.034 37.920,46.082 37.997 C 46.130 38.075,46.089 38.165,45.992 38.197 C 45.894 38.230,45.865 38.388,45.927 38.550 C 46.023 38.801,46.066 38.809,46.228 38.602 C 46.332 38.470,46.567 38.336,46.750 38.304 C 46.971 38.266,47.101 38.093,47.136 37.790 C 47.197 37.263,46.936 37.197,46.368 37.595 M45.145 38.282 C 44.975 38.492,44.972 38.531,45.132 38.434 C 45.251 38.363,45.441 38.382,45.555 38.476 C 45.708 38.603,45.762 38.563,45.762 38.324 C 45.762 37.925,45.452 37.904,45.145 38.282 M43.995 39.843 C 43.894 40.031,43.836 40.259,43.867 40.350 C 43.897 40.440,44.008 40.286,44.113 40.007 C 44.332 39.427,44.266 39.336,43.995 39.843 M45.060 40.361 C 45.003 40.712,44.871 41.000,44.765 41.000 C 44.504 41.000,44.036 41.820,43.920 42.480 C 43.764 43.364,43.488 43.706,43.205 43.363 C 43.079 43.209,43.023 43.177,43.081 43.292 C 43.139 43.406,43.126 43.500,43.052 43.500 C 42.977 43.500,42.905 43.819,42.891 44.208 C 42.877 44.598,42.829 45.142,42.785 45.417 C 42.741 45.692,42.696 46.003,42.686 46.109 C 42.675 46.223,42.518 46.263,42.307 46.208 C 42.079 46.148,41.987 46.178,42.056 46.290 C 42.116 46.386,42.063 46.504,41.939 46.552 C 41.772 46.616,41.729 46.501,41.772 46.111 C 41.811 45.752,41.782 45.659,41.680 45.818 C 41.598 45.947,41.569 46.154,41.617 46.277 C 41.664 46.399,41.601 46.501,41.476 46.503 C 41.295 46.505,41.298 46.535,41.490 46.657 C 41.621 46.740,41.747 47.046,41.769 47.337 C 41.820 47.998,42.000 48.212,42.000 47.611 C 42.000 47.288,42.085 47.167,42.312 47.167 C 42.637 47.167,42.874 46.522,43.092 45.041 C 43.149 44.651,43.256 44.369,43.329 44.414 C 43.545 44.548,43.780 44.151,44.166 43.000 C 44.366 42.404,44.636 41.857,44.765 41.783 C 44.894 41.710,45.000 41.521,45.000 41.362 C 45.000 41.204,45.102 40.926,45.228 40.745 C 45.618 40.182,45.703 39.722,45.417 39.722 C 45.250 39.722,45.126 39.943,45.060 40.361 M42.733 42.758 C 42.675 42.991,42.673 43.229,42.730 43.286 C 42.787 43.342,42.833 43.272,42.833 43.129 C 42.833 42.986,42.951 42.824,43.094 42.769 C 43.237 42.714,43.308 42.593,43.251 42.501 C 43.069 42.208,42.843 42.320,42.733 42.758 M41.592 48.761 C 41.486 49.330,41.445 49.364,40.989 49.273 C 40.529 49.181,40.319 49.368,40.651 49.574 C 40.734 49.625,40.782 49.798,40.758 49.958 C 40.734 50.119,40.745 50.163,40.783 50.057 C 40.821 49.952,41.028 49.821,41.244 49.766 C 41.548 49.690,41.663 49.514,41.752 48.989 C 41.895 48.140,41.748 47.930,41.592 48.761 M139.075 56.167 C 139.075 59.421,139.097 60.752,139.125 59.125 C 139.152 57.498,139.152 54.835,139.125 53.208 C 139.097 51.581,139.075 52.913,139.075 56.167 M40.500 51.222 C 40.500 51.620,40.418 51.700,40.060 51.652 C 39.918 51.633,39.672 52.033,39.669 52.288 C 39.667 52.446,39.762 52.449,40.081 52.304 C 40.483 52.121,40.848 51.126,40.603 50.881 C 40.547 50.824,40.500 50.978,40.500 51.222 M39.500 53.321 C 39.500 53.835,39.080 54.403,38.820 54.242 C 38.579 54.093,38.333 54.935,38.333 55.910 C 38.333 56.558,38.264 56.824,38.075 56.897 C 37.932 56.952,37.856 56.931,37.905 56.852 C 37.954 56.773,37.818 56.708,37.604 56.708 C 37.306 56.708,37.223 56.791,37.252 57.063 C 37.274 57.257,37.305 57.642,37.323 57.917 C 37.352 58.374,37.367 58.386,37.500 58.056 C 37.580 57.858,37.796 57.648,37.980 57.590 C 38.231 57.510,38.341 57.285,38.418 56.700 C 38.617 55.192,38.682 55.000,38.995 55.000 C 39.162 55.000,39.340 54.888,39.393 54.752 C 39.551 54.341,39.717 52.833,39.605 52.833 C 39.547 52.833,39.500 53.053,39.500 53.321 M37.189 58.958 C 37.177 59.256,37.073 59.511,36.958 59.525 C 36.844 59.539,36.637 59.558,36.500 59.567 C 36.307 59.580,36.246 59.831,36.230 60.667 C 36.220 61.262,36.244 61.502,36.283 61.200 C 36.333 60.821,36.481 60.592,36.758 60.466 C 37.187 60.271,37.423 59.532,37.287 58.813 C 37.228 58.500,37.207 58.530,37.189 58.958 M35.493 60.179 C 35.324 60.496,35.338 60.509,35.654 60.340 C 35.844 60.238,36.000 60.083,36.000 59.994 C 36.000 59.708,35.684 59.824,35.493 60.179 M36.000 62.238 C 36.000 62.370,35.831 62.501,35.625 62.530 C 35.387 62.564,35.231 62.717,35.198 62.951 C 35.147 63.307,35.161 63.311,35.656 63.064 C 36.094 62.845,36.434 62.000,36.083 62.000 C 36.037 62.000,36.000 62.107,36.000 62.238 M33.167 64.167 C 32.983 64.350,32.833 64.587,32.833 64.694 C 32.833 64.801,32.852 64.858,32.875 64.819 C 32.898 64.781,33.098 64.544,33.321 64.292 C 33.785 63.765,33.666 63.668,33.167 64.167 M35.039 64.333 C 35.039 64.654,35.073 64.785,35.115 64.625 C 35.157 64.465,35.157 64.202,35.115 64.042 C 35.073 63.881,35.039 64.012,35.039 64.333 M34.101 65.264 C 33.893 65.805,33.973 66.051,34.262 65.762 C 34.406 65.618,34.631 65.500,34.762 65.500 C 34.893 65.500,35.000 65.387,35.000 65.250 C 35.000 64.911,34.232 64.923,34.101 65.264 M32.034 66.376 C 31.938 66.491,31.828 66.772,31.788 67.001 C 31.748 67.230,31.748 67.322,31.787 67.206 C 31.826 67.091,31.927 67.038,32.011 67.090 C 32.094 67.142,32.118 67.067,32.063 66.923 C 32.008 66.780,32.055 66.551,32.168 66.415 C 32.282 66.278,32.337 66.167,32.291 66.167 C 32.245 66.167,32.129 66.261,32.034 66.376 M33.833 66.478 C 33.833 66.847,33.236 67.218,32.933 67.038 C 32.850 66.989,32.835 67.035,32.901 67.141 C 32.966 67.247,32.936 67.333,32.833 67.333 C 32.731 67.333,32.685 67.395,32.732 67.471 C 32.820 67.613,32.117 69.117,31.828 69.405 C 31.739 69.494,31.667 69.699,31.667 69.861 C 31.667 70.068,31.584 70.124,31.389 70.050 C 31.188 69.973,31.149 70.004,31.248 70.164 C 31.339 70.311,31.320 70.345,31.193 70.266 C 31.087 70.201,30.834 70.264,30.630 70.407 C 30.426 70.550,30.352 70.667,30.465 70.667 C 30.604 70.667,30.642 70.835,30.581 71.179 C 30.531 71.461,30.557 71.651,30.639 71.601 C 30.724 71.548,30.729 71.806,30.651 72.213 C 30.576 72.600,30.511 73.008,30.507 73.120 C 30.503 73.231,30.397 73.283,30.272 73.235 C 30.013 73.136,29.780 73.548,29.746 74.167 C 29.695 75.076,29.445 75.699,29.060 75.874 C 28.806 75.990,28.667 76.195,28.667 76.453 C 28.667 77.555,27.994 78.938,27.633 78.577 C 27.590 78.535,27.553 78.594,27.550 78.708 C 27.532 79.363,27.134 80.923,26.957 81.031 C 26.843 81.100,26.651 81.223,26.529 81.305 C 26.407 81.386,26.270 81.782,26.224 82.184 C 26.177 82.587,26.096 83.029,26.043 83.167 C 25.990 83.304,25.961 83.478,25.978 83.554 C 25.994 83.630,25.840 83.573,25.634 83.429 C 25.082 83.043,25.044 83.084,25.052 84.042 C 25.071 86.024,25.044 86.131,24.500 86.250 C 23.972 86.366,23.865 87.028,23.990 89.415 C 24.049 90.550,24.167 90.285,24.167 89.017 C 24.167 87.765,24.351 87.167,24.737 87.167 C 24.884 87.167,25.034 86.774,25.167 86.042 C 25.307 85.275,25.495 84.799,25.755 84.549 C 25.965 84.346,26.181 83.952,26.235 83.674 C 26.289 83.395,26.377 82.939,26.431 82.660 C 26.485 82.381,26.699 81.987,26.906 81.785 C 27.128 81.567,27.366 81.024,27.486 80.458 C 27.611 79.872,27.804 79.438,27.983 79.343 C 28.282 79.182,28.667 78.158,28.667 77.521 C 28.667 77.325,28.853 77.002,29.081 76.804 C 29.309 76.606,29.546 76.175,29.607 75.847 C 29.755 75.056,30.134 74.167,30.322 74.167 C 30.405 74.167,30.526 73.926,30.591 73.632 C 30.722 73.035,31.287 71.882,31.517 71.739 C 31.599 71.689,31.667 71.440,31.667 71.188 C 31.667 70.896,31.848 70.555,32.165 70.252 C 32.460 69.969,32.702 69.532,32.760 69.179 C 32.898 68.334,33.177 67.833,33.509 67.833 C 33.795 67.833,34.156 66.434,33.929 66.207 C 33.876 66.154,33.833 66.276,33.833 66.478 M73.526 67.170 C 73.420 67.764,73.263 68.712,73.178 69.278 C 73.093 69.843,72.916 70.518,72.786 70.778 C 72.655 71.037,72.456 71.737,72.342 72.333 C 71.116 78.781,69.478 83.208,67.298 85.965 C 66.568 86.889,66.532 86.977,66.798 87.208 C 67.212 87.568,72.459 87.772,72.906 87.445 C 73.268 87.180,71.744 87.000,69.136 87.000 C 67.723 87.000,67.663 86.985,67.827 86.678 C 67.922 86.500,68.000 86.198,68.000 86.006 C 68.000 85.813,68.103 85.617,68.229 85.568 C 68.975 85.282,70.515 82.216,70.942 80.167 C 71.085 79.479,71.357 78.579,71.545 78.167 C 71.734 77.754,72.028 76.594,72.198 75.588 C 72.389 74.458,72.597 73.709,72.742 73.628 C 73.026 73.469,73.288 72.218,73.413 70.417 C 73.600 67.738,73.697 66.999,73.847 67.092 C 74.028 67.204,74.029 66.883,73.848 66.420 C 73.752 66.174,73.670 66.364,73.526 67.170 M30.564 69.407 C 30.513 69.539,30.501 69.783,30.537 69.949 C 30.578 70.137,30.635 70.047,30.689 69.708 C 30.780 69.141,30.721 68.998,30.564 69.407 M73.732 75.762 C 73.673 75.998,73.700 76.504,73.792 76.887 C 73.959 77.580,73.960 77.578,73.980 76.458 C 74.001 75.281,73.914 75.037,73.732 75.762 M73.705 81.500 C 73.705 81.821,73.740 81.952,73.782 81.792 C 73.823 81.631,73.823 81.369,73.782 81.208 C 73.740 81.048,73.705 81.179,73.705 81.500 M23.238 86.370 C 23.187 86.533,23.091 86.667,23.025 86.667 C 22.960 86.667,22.898 86.873,22.888 87.125 C 22.879 87.377,22.905 87.452,22.947 87.292 C 22.990 87.131,23.098 87.000,23.189 87.000 C 23.279 87.000,23.307 86.926,23.252 86.836 C 23.196 86.746,23.398 86.521,23.700 86.336 L 24.250 85.999 23.791 86.036 C 23.520 86.058,23.294 86.194,23.238 86.370 M63.465 90.290 C 64.041 90.323,64.941 90.323,65.465 90.290 C 65.988 90.257,65.517 90.230,64.417 90.230 C 63.317 90.231,62.888 90.258,63.465 90.290 M62.417 90.667 C 62.350 90.774,62.952 90.826,64.115 90.814 C 66.837 90.784,67.331 90.543,64.718 90.520 C 63.410 90.508,62.478 90.568,62.417 90.667 M58.958 91.124 C 59.623 91.155,60.710 91.155,61.375 91.124 C 62.040 91.092,61.496 91.066,60.167 91.066 C 58.837 91.066,58.294 91.092,58.958 91.124 M18.874 91.875 C 18.663 92.139,18.408 92.979,18.609 92.750 C 18.689 92.658,18.936 92.377,19.157 92.125 C 19.466 91.772,19.499 91.667,19.299 91.667 C 19.157 91.667,18.966 91.760,18.874 91.875 M60.953 94.265 C 60.411 94.559,60.458 94.697,61.231 95.063 C 61.993 95.425,62.551 95.404,62.917 95.000 C 63.609 94.235,62.070 93.659,60.953 94.265 M75.667 94.340 C 74.979 94.520,73.298 94.894,71.931 95.172 C 70.500 95.463,69.369 95.778,69.265 95.915 C 69.165 96.046,68.746 96.295,68.333 96.469 L 67.583 96.784 69.333 96.987 C 70.296 97.099,71.638 97.324,72.316 97.487 C 73.499 97.772,73.561 97.772,73.847 97.487 C 74.402 96.931,74.914 96.687,76.083 96.422 C 77.745 96.045,79.335 94.552,78.375 94.270 C 77.541 94.025,76.801 94.044,75.667 94.340 M76.272 99.345 C 75.753 99.754,75.677 100.095,76.163 99.835 C 76.453 99.680,76.954 99.000,76.778 99.000 C 76.742 99.000,76.514 99.155,76.272 99.345 " stroke="none" fill="#04609c" fill-rule="evenodd"></path></g></svg>